<svg xmlns="http://www.w3.org/2000/svg" viewBox="0 0 496 496"><g fill="#ffffff">
  <path d="M248 96a48 48 0 1 0-.1-96.1A48 48 0 0 0 248 96zm0-80a32 32 0 1 1 0 64 32 32 0 0 1 0-64z"/><path d="M408 112c-22 0-40 18-40 40v72h64v48h-72a56 56 0 0 0-56 56v69.8c0-5-1.2-10-3.3-14.4l-52.2-112 13.2-46.4 7 7H316a28 28 0 0 0 0-56h-23.7l-12.5-18.8.2-3.1v-7.7a50.5 50.5 0 0 0-79.7-41L172 125.6a48 48 0 0 0-12.8 64.4l16.5 26.3-8.2 40.7.2.4-7.4 67-55.4 55.3a30.4 30.4 0 0 0-5.1 36.3H40a40 40 0 0 0 0 80h352a40 40 0 0 0 0-80h-72v-88c0-22 18-40 40-40h72v208h64V112h-88zm-133 66.8l8.7 13.2H316a12 12 0 0 1 0 24h-40.7l-8.5-8.6 8.1-28.6zm29 220.7V416h-4.7a32.1 32.1 0 0 0 4.7-16.5zM254 321l32.2 69.3c1.2 2.3 1.8 4.8 1.8 7.4v1.7a16.5 16.5 0 0 1-31.4 7L221 332.2l33-11zm-6.8-14.6l-33 11-29.8-62.5 3.8-19a28.4 28.4 0 0 0 42.6 4.3l8.7 4.4-8 28 15.7 33.8zm-41 31.4l-1.5 2.8-28.2-17 4.3-38.9 25.3 53zm8.4 18.8l.2-.5 27.3 57.3c.4.9 1 1.7 1.5 2.5h-88.3l59.3-59.3zm-5-238.3a34.5 34.5 0 0 1 54.4 28v7.7c0 3.2-.4 6.3-1.3 9.4L244 229l-5-2.4c.6-2.3 1-4.7 1-7.2v-5.7c0-5.2-1.4-10.3-4-14.7l-17.2-28.6 17.6-11.7-8.8-13.4-18.6 12.4-22.7-22.7 23.3-16.6zm-36.8 63a32 32 0 0 1 1.5-35.8l27.3 27.4 20.6 34.2c1.2 2 1.8 4.2 1.8 6.5v5.7a12.6 12.6 0 0 1-23.3 6.7l-27.9-44.6zM116.3 391l53-53 25.8 15.6-58.1 58.1a14.6 14.6 0 0 1-20.7-20.7zM40 480a24 24 0 1 1 0-48 24 24 0 0 1 0 48zm352-48a24 24 0 1 1 0 48 24 24 0 0 1 0-48zm-56 16v-16h24.2a39.6 39.6 0 0 0 0 48H336v-16h-16v16h-16v-16h-16v16h-16v-16h-16v16h-16v-16h-16v16h-16v-16h-16v16h-16v-16h-16v16h-16v-16h-16v16h-16v-16H96v16H71.8a39.6 39.6 0 0 0 0-48H96v16h16v-16h16v16h16v-16h16v16h16v-16h16v16h16v-16h16v16h16v-16h16v16h16v-16h16v16h16v-16h16v16h16zm144 32h-32V224h32v256zm0-272h-96v-32h96v32zm0-48h-96v-8a24 24 0 0 1 24-24h72v32z"/>
</g></svg>
