<svg xmlns="http://www.w3.org/2000/svg" viewBox="0 0 512 512"><g fill="#ffffff">
  <path d="M358.4 137v-17.5H384c13.7 0 25.6-11.1 25.6-25.6V25.6c0-13.7-11-25.6-25.6-25.6H128c-13.7 0-25.6 11-25.6 25.6v68.3c0 13.6 11 25.6 25.6 25.6h25.6V137a68.5 68.5 0 0 0-59.7 67.7V443.7A68.5 68.5 0 0 0 162 512H350a68.5 68.5 0 0 0 68.2-68.3V204.8a68.5 68.5 0 0 0-59.7-67.7zM119.4 94v-8.6h85.4c4.3 0 8.5-3.4 8.5-8.5s-3.4-8.5-8.5-8.5h-85.3V51.2h34.1c4.3 0 8.5-3.4 8.5-8.5s-3.4-8.6-8.5-8.6h-34.1v-8.5c0-4.3 3.4-8.5 8.5-8.5h256c4.3 0 8.5 3.4 8.5 8.5v8.5h-85.3c-5.1 0-8.5 3.4-8.5 8.6 0 4.2 3.4 8.5 8.5 8.5h85.3v17h-34.1a8.6 8.6 0 0 0 0 17.1h34.1V94c0 4.2-3.4 8.5-8.5 8.5H128a8.5 8.5 0 0 1-8.5-8.5zm222 25.6v17H170.6v-17h170.6zM162 153.6H350c28.1 0 51.2 23 51.2 51.2v17H110.9v-17c0-28.2 23-51.2 51.2-51.2zm239 256H110.9V238.9h290.2v170.7zm-51.2 85.3H162c-28.1 0-51.2-23-51.2-51.2v-17h290.2v17c0 28.2-23 51.2-51.2 51.2z"/><path d="M221.9 333.7h49.5L232 378.9c-3.4 3.4-2.6 8.5.9 12 1.7.8 4.2 1.6 6 1.6 2.5 0 5-.8 6.8-2.5l51.2-59.8c1.7-2.5 2.5-6 .8-9.3s-4.3-5.2-7.7-5.2h-49.5l38.4-45.2c3.5-3.4 2.6-8.5-.8-12s-8.5-2.5-12 1L215 319c-1.7 2.6-2.5 6-.8 9.4s4.3 5.2 7.7 5.2z"/>
</g></svg>
