<svg xmlns="http://www.w3.org/2000/svg" viewBox="0 0 512 512"><g fill="#ffffff">
  <path d="M67.4 495.8h-1.1a8 8 0 1 0 0 16.2h1a8 8 0 1 0 0-16.2zM390.7 479.7a40.5 40.5 0 1 0 0-81 40.5 40.5 0 0 0 0 81zm0-64.7a24.3 24.3 0 1 1 0 48.6 24.3 24.3 0 0 1 0-48.6zM24.3 495.8h-1.1a8 8 0 1 0 0 16.2h1a8 8 0 1 0 0-16.2zM498.5 495.8h-1a8 8 0 1 0 0 16.2h1a8 8 0 1 0 0-16.2zM396.1 113.2a8 8 0 0 0 8.1-8.1V40.4a8 8 0 1 0-16.2 0v64.7a8 8 0 0 0 8.1 8z"/><path d="M390.7 382.7a40.5 40.5 0 0 0 40.5-40.5V40.4a40.5 40.5 0 0 0-80.9 0v301.8a40.5 40.5 0 0 0 40.4 40.5zM366.5 40.4a24.3 24.3 0 0 1 48.5 0v301.8a24.3 24.3 0 0 1-48.5 0V40.4z"/><path d="M396.1 144.1a8 8 0 0 0 8.1-8V135a8 8 0 1 0-16.2 0v1a8 8 0 0 0 8.1 8.1zM204.8 439.2a40.5 40.5 0 1 0-81 .1 40.5 40.5 0 0 0 81 0zm-64.7 0a24.3 24.3 0 1 1 48.6.1 24.3 24.3 0 0 1-48.6 0zM199 37.1a8 8 0 1 0-4.5 15.6A110.9 110.9 0 0 1 275 159a8 8 0 1 0 16.1 0c0-56.4-37.8-106.5-92-121.9zM294.8 495.8h-1a8 8 0 1 0 0 16.2h1a8 8 0 1 0 0-16.2zM165.3 32.3h-1a8 8 0 1 0 0 16.2h.8a8 8 0 0 0 .2-16.2zM218.3 495.8H99.7a8 8 0 1 0 0 16.2h118.6a8 8 0 1 0 0-16.2zM251.7 495.8h-1a8 8 0 1 0 0 16.2h1a8 8 0 1 0 0-16.2zM455.4 495.8H326.1a8 8 0 1 0 0 16.2h129.3a8 8 0 1 0 0-16.2z"/><path d="M319.3 154.7a156 156 0 0 0-46-108.6A156 156 0 0 0 162.2 0C120.9 0 81.8 16 52.2 45.2A155.8 155.8 0 0 0 5.4 156.9a40.5 40.5 0 0 0 80.8 0c0-20.5 8-39.7 22.7-54.1a75.6 75.6 0 0 1 54.5-22 76.6 76.6 0 0 1 75 75 76.6 76.6 0 0 1-42.3 69.4 133.4 133.4 0 0 0-74.2 117 40.5 40.5 0 0 0 81 .4c.7-19.2 12-36.4 29.1-45a157.2 157.2 0 0 0 87.3-142.9zm-94.5 128.4a68.9 68.9 0 0 0-38.2 59.1 24.3 24.3 0 0 1-48.5.2 117.6 117.6 0 0 1 65.2-102.7 92.9 92.9 0 0 0 51.3-84 92.9 92.9 0 0 0-91-91c-24.8-.4-48.3 9-66 26.5A91.6 91.6 0 0 0 70 157a24.3 24.3 0 0 1-48.5 0c0-38 14.8-73.6 41.9-100.3a139.8 139.8 0 0 1 100.8-40.5 140 140 0 0 1 97.5 41.3 140 140 0 0 1 20 173.9 141 141 0 0 1-57 51.7z"/>
</g></svg>
