<svg xmlns="http://www.w3.org/2000/svg" viewBox="0 0 511.6 511.6"><path d="M477.4 127.4c-23-28-54-50.2-93-66.5-39.3-16.4-82-24.5-128.6-24.5-34.6 0-67.7 4.8-99.3 14.4-31.6 9.5-59 22.5-81.7 39-22.8 16.3-41 35.7-54.5 58.3C6.8 170.8 0 194.5 0 219.3c0 28.5 8.6 55.2 25.8 80.2 17.3 25 40.8 45.8 70.7 62.8C94.5 370 92 377 89 384c-2.8 6.8-5.3 12.4-7.6 16.8S76 410 72 415.4c-3.8 5.3-6.8 9-8.8 11.3-2 2-5.2 5.8-9.8 10.8l-9 10s-.8.8-2 2.4c-1.5 1.5-2 2.3-2 2.3l-2 2.6c-.8 1.3-1.2 2.2-1 2.6 0 .4-.2 1.4-.7 3-.5 1.4-.4 2.5 0 3.3v.2c1 3.4 2.6 6.2 5 8.3 2.7 2 5.6 3 8.8 2.5 12.4-1.5 23.3-3.6 32.6-6.2 50-12.8 93.7-35.8 131.4-69 14.3 1.4 28 2 41.4 2 46.5 0 89.3-8 128.5-24.3 39.2-16.2 70.2-38.4 93-66.5 23-28 34.3-58.7 34.3-91.8 0-33-11.4-63.7-34.2-91.8z"/></svg>
