<svg xmlns="http://www.w3.org/2000/svg" viewBox="0 0 511.6 511.6"><path d="M506 236c-26.7-43.5-62.6-78.5-107.6-105-45-26.4-92.5-39.6-142.6-39.6-50 0-97.6 13.2-142.6 39.7-45 26.5-80.8 61.5-107.5 105C2 243 0 249.4 0 256s2 13 5.7 19.7c26.7 43.6 62.5 78.6 107.5 105 45 26.5 92.6 39.8 142.6 39.8s97.6-13.2 142.6-39.6c45-26.3 81-61.4 107.5-105.2 3.7-6.6 5.6-13.2 5.6-19.7s-2-13-5.7-19.7zm-311.4-78c17-17 37.4-25.5 61.2-25.5 3.8 0 7 1.3 9.7 4 2.7 2.6 4 6 4 9.7 0 3.8-1.3 7-4 9.7-2.6 2.6-6 4-9.7 4-16.4 0-30.3 5.7-42 17.3-11.6 11.6-17.4 25.6-17.4 42 0 3.8-1.3 7-4 9.7-2.6 2.6-6 4-9.7 4-3.8 0-7-1.4-9.7-4-2.7-2.7-4-6-4-9.7 0-23.8 8.5-44.2 25.6-61.3zM380 349c-38.3 23.2-79.6 34.7-124.2 34.7-44.5 0-86-11.5-124-34.7s-70-54.2-95.3-93.2c29-45 65.2-78.5 108.8-100.8-11.6 19.8-17.4 41.2-17.4 64.3 0 35.2 12.4 65.3 37.5 90.3s55 37.6 90.3 37.6c35.2 0 65.3-12.5 90.4-37.6s37.5-55 37.5-90.3c0-23-5.8-44.5-17.4-64.3C410 177.3 446 211 475 255.8c-25.2 39-57 70-95 93.2z"/></svg>
