<svg xmlns="http://www.w3.org/2000/svg" viewBox="0 0 48 48"><path d="M48 22v-.3l-.1-.1a1 1 0 0 0-.2-.3L42 15.6V10v-.3l-.1-.1a1 1 0 0 0-.2-.3l-9-9-.3-.2H32L32 0H7a1 1 0 0 0-1 1v14.6L.3 21.3l-.2.3v.3L0 22v19c0 .6.4 1 1 1h5v5c0 .6.4 1 1 1h34c.6 0 1-.4 1-1v-5h5c.6 0 1-.4 1-1V22zm-3.4-1H42v-2.6l2.6 2.6zm-6-12H33V3.4L38.6 9zM8 2h23v8c0 .6.4 1 1 1h8v10H8V2zM6 18.4V21H3.4L6 18.4zM40 46H8v-4h32v4zm6-6H2V23h44v17z"/><path d="M18.3 26.7c-.4-.3-.7-.5-1.1-.6L16 26h-3.4v12h2v-4.8h1.5l1.2-.2 1-.7c.4-.3.6-.7.8-1.2.2-.4.3-1 .3-1.6a4 4 0 0 0-.3-1.7c-.3-.4-.5-.8-.8-1zM17 31c-.3.3-.7.5-1.2.5h-1.2v-3.8h1.2c.5 0 .9.1 1.2.4.3.3.4.8.4 1.4 0 .7-.1 1.2-.4 1.5zM30.7 38h2v-5.2H36v-1.7h-3.1v-3.3H36V26h-5.4zM24 26h-3v12h3c1.6 0 2.8-.5 3.6-1.6.8-1 1.2-2.5 1.2-4.4 0-2-.4-3.4-1.2-4.4-.8-1.1-2-1.6-3.5-1.6zm2.6 7.8a4 4 0 0 1-.6 1.4c-.2.3-.5.6-.9.8l-1 .2h-1v-8.5h1a2.2 2.2 0 0 1 1.9 1.1l.6 1.3.1 1.9-.1 1.8z"/></svg>