<svg xmlns="http://www.w3.org/2000/svg" viewBox="0 0 95.5 95.5"><path d="M43 67.3c-7.4-.8-14-2.6-19.7-7-.8-.7-1.5-1.2-2-1.8-2.6-2.4-3-5.2-1-8 1.8-2.4 4.6-3 7.6-1.7l1.5 1c10.7 7.3 25.3 7.5 36 .3 1-.7 2.2-1.4 3.5-1.7 2.5-.7 5 .3 6.3 2.5 1.6 2.6 1.5 5-.4 7-3 3-6.6 5.3-10.6 6.8-3.7 1.4-7.8 2.2-11.8 2.6.6.7 1 1 1.2 1.4l16.5 16.6c2 2 2.3 4.2 1.3 6.4-1 2.4-3.7 4-6 3.8-1.7 0-3-1-4-2-4-4-8.4-8.2-12.4-12.5-1.2-1.3-1.8-1-2.8 0L33.7 93.7c-2 2-4.2 2.3-6.4 1.2-2.4-1.3-4-3.7-3.8-6 0-1.7 1-3 2-4l16.3-16.4 1.2-1.3z"/><path d="M47.5 48.3c-13.2 0-24-11-24-24.2.2-13.3 11-24 24.3-24 13.4 0 24 11 24 24.5 0 13.2-11 24-24.3 23.8zm12-24.2c0-6.4-5.2-11.7-11.8-11.7-6.6 0-11.8 5.4-11.8 12C36 30.8 41 36 47.7 36c6.6 0 11.8-5.3 11.8-12z"/></svg>
