<svg xmlns="http://www.w3.org/2000/svg" viewBox="0 0 169.1 169.1"><path d="M122.4 0H46.7C21 0 0 21 0 46.7v75.7C0 148 21 169 46.7 169h75.7c25.7 0 46.7-21 46.7-46.6V46.7C169 21 148 0 122.5 0zM154 122.4c0 17.5-14 31.7-31.6 31.7H46.7C29.2 154 15 140 15 122.5V46.7C15 29.2 29.2 15 46.7 15h75.7C140 15 154 29.2 154 46.7v75.7z"/><path d="M84.5 41C60.5 41 41 60.5 41 84.5S60.5 128 84.5 128 128 108.7 128 84.6c0-24-19.4-43.5-43.5-43.5zm0 72C68.8 113 56 100.4 56 84.6 56 68.8 68.8 56 84.5 56S113 68.8 113 84.5c0 15.8-12.7 28.6-28.5 28.6zM130 28.3c-3 0-5.8 1-7.8 3.2-2 2-3.3 5-3.3 7.8s1 5.7 3.2 7.7c2 2 4.8 3.3 7.7 3.3 2.8 0 5.7-1.2 7.7-3.3 2-2 3.2-5 3.2-7.7 0-3-1.2-5.8-3.3-7.8-2-2-5-3.2-7.8-3.2z"/></svg>
