<svg xmlns="http://www.w3.org/2000/svg" viewBox="0 0 512 512"><path d="M512 240c0-49.2-40-89-89.2-89h-7c-23.2-28.7-58-45.8-95.8-45.8-37.7 0-72.6 17-95.7 46l-7.2-.3c-49 0-89 39.8-89 89 0 5 .7 10 1.5 15-.5.8-1.2 1.4-1.7 2-5.2-.6-10.5-1-15.8-1C50.2 256 0 306.3 0 368c0 61.8 50.3 112 112 112 13.7 0 27-2.5 39.7-7.3C180.7 498 217.5 512 256 512s75.3-14 104.3-39.3c12.6 4.8 26 7.3 39.7 7.3 61.8 0 112-50.2 112-112 0-25.7-9-49-23.7-68 14.6-16 23.7-36.8 23.7-60zM400 448c-17 0-33-5.5-46-14.7-23.4 28.3-58.4 46.7-98 46.7s-74.6-18.4-98-46.7c-13 9.2-29 14.7-46 14.7-44.2 0-80-35.8-80-80s35.8-80 80-80c10.8 0 21 2.2 30.4 6l1.8-3c5.7-10.2 12.6-19.6 20.7-28 23-24 55-39 91-39 49.7 0 92.3 28.7 113.5 70 5.7-2.2 11.7-3.8 18-4.7L400 288c12.3 0 24 3 34.3 8 11.3 5.4 21 13.4 28.7 23.2 10.5 13.5 17 30.3 17 48.8 0 44.2-35.8 80-80 80zm65.6-170.4C447 264.2 424.6 256 400 256c-5.3 0-10.6.4-15.8 1-30-40.6-77-65-128.2-65-34 0-66.3 11-93 30.3 7.5-22.8 28.8-39.4 54-39.4 8 0 15.2 1.4 22 4.2 15-29.6 45.5-50 81-50s66 20.4 81 50c6.8-2.8 14.2-4.3 21.8-4.3 31.6 0 57.2 25.4 57.2 57 0 14.5-5.6 27.5-14.4 37.6z"/></svg>
