<svg xmlns="http://www.w3.org/2000/svg" viewBox="0 0 512 653.5"><path d="M435 223.4c4.9-3.6 9.8-7.2 14.2-11.6A126.6 126.6 0 0 0 479 164a16 16 0 0 0-20.4-20.4c-35.4 12.5-73.6 4-99.9-22.3s-34.7-64.6-22.2-100A16 16 0 0 0 316.1.9a126.9 126.9 0 0 0-47.8 29.8c-33.5 33.5-44 81-32.5 123.8a158.7 158.7 0 0 0-108.1 63.8 113.8 113.8 0 0 0-15.8-1.1 112 112 0 0 0 0 224 110.7 110.7 0 0 0 39.7-7.3 157.9 157.9 0 0 0 208.6 0 110.5 110.5 0 0 0 39.7 7.3c61.7 0 111.9-50.3 111.9-112 .2-49.4-32.2-91-76.8-105.8zM290.9 53.3a89.8 89.8 0 0 1 8.1-7.2A127.4 127.4 0 0 0 433.9 181c-13.8 17.5-32.8 28.5-53.1 33.1a158.2 158.2 0 0 0-111.9-60.2c-12.4-33.9-5.2-73.4 22-100.6zm109.1 356a79.6 79.6 0 0 1-46-14.7c-23.5 28.3-58.5 46.7-98.1 46.7s-74.5-18.4-98-46.7a80 80 0 1 1-15.5-139.3 127.5 127.5 0 0 1 106.3-69.5c2.5-.2 4.8-.6 7.2-.6a126.9 126.9 0 0 1 109.5 63.3c1.4 2.2 2.9 4.4 4.1 6.7A80 80 0 1 1 400 409.3zM226.3 621.5a32 32 0 1 0 64 0c0-17.7-32-64-32-64s-32 46.3-32 64zm127-32a32 32 0 0 0 64 0c0-17.7-32-64-32-64s-32 46.3-32 64zm-256-64a32 32 0 1 0 64 0c0-17.7-32-64-32-64s-32 46.3-32 64z"/></svg>
