<svg xmlns="http://www.w3.org/2000/svg" viewBox="0 0 512 693.3"><path d="M192 48V16a16 16 0 0 1 32 0v32a16 16 0 0 1-32 0zm140.5 58.2l22.6-22.6A16 16 0 0 0 332.5 61l-22.6 22.5a16 16 0 0 0 22.6 22.6zM16 224h32a16 16 0 1 0 0-32H16a16 16 0 1 0 0 32zm336-16a16 16 0 0 0 16 16h32a16 16 0 1 0 0-32h-32a16 16 0 0 0-16 16zM83.6 106.2a16 16 0 1 0 22.6-22.6L83.6 60.9a16 16 0 1 0-22.7 22.6zM512 368a112.1 112.1 0 0 1-112 112 110.8 110.8 0 0 1-39.7-7.3 158.1 158.1 0 0 1-208.6 0A110.6 110.6 0 0 1 112 480 112.1 112.1 0 0 1 0 368c0-60.2 47.9-109.1 107.5-111.6A109.7 109.7 0 0 1 96 208 112.2 112.2 0 0 1 208 96c60.9 0 110.5 49 111.8 109.7a159.7 159.7 0 0 1 64.5 51.5A107.8 107.8 0 0 1 400 256a112.1 112.1 0 0 1 112 112zM128 208a79.1 79.1 0 0 0 9.6 37.2A158.3 158.3 0 0 1 256 192a156.2 156.2 0 0 1 30.7 3.3A79.9 79.9 0 0 0 128 208zm352 160a79.9 79.9 0 0 0-110.4-74 129.3 129.3 0 0 0-54.5-55 122.2 122.2 0 0 0-29.8-11.3A127.1 127.1 0 0 0 256 224c-39.5 0-74.3 18.2-97.6 46.3a129.8 129.8 0 0 0-16 23.8 62.1 62.1 0 0 0-8.3-2.5A76.6 76.6 0 0 0 112 288a80 80 0 1 0 46 145.4c23.4 28.2 58.4 46.6 98 46.6s74.5-18.4 98-46.7A79.8 79.8 0 0 0 480 368zM226.3 661.3a32 32 0 1 0 64 0c0-17.7-32-64-32-64s-32 46.3-32 64zm127-32a32 32 0 1 0 64 0c0-17.7-32-64-32-64s-32 46.4-32 64zm-256-64a32 32 0 1 0 64 0c0-17.7-32-64-32-64s-32 46.3-32 64z"/></svg>
