<svg xmlns="http://www.w3.org/2000/svg" viewBox="0 0 512 512"><path d="M192 384l32 32-32 96 96-96-32-32 32-64-96 64zm320-249.2c0-49-40-89-89.2-89-2.4 0-4.7 0-7 .2-23.2-29-58-46-95.8-46-37.7 0-72.6 17-95.7 46l-7.2-.3c-49 0-89 40-89 89 0 5.3.7 10.3 1.5 15.2-.5.6-1.2 1.2-1.7 2-5.2-.8-10.5-1.2-15.8-1.2-61.8 0-112 50.3-112 112 0 61.8 50.3 112 112 112 13.7 0 27-2.5 39.7-7.3 1 1 2.4 1.6 3.6 2.6l28.3-18.8c-9.5-6.7-18.3-14-25.7-23-13 9-29 14.6-46 14.6-44.2 0-80-35.8-80-80 0-44 35.8-80 80-80 10.8 0 21 2.2 30.4 6l1.8-3c5.7-10.2 12.6-19.6 20.7-28 23-24 55-39 91-39 49.7 0 92.3 28.7 113.5 70 5.7-2.2 11.7-3.7 18-4.7L400 183c12.3 0 24 3 34.3 8 11.3 5.4 21 13.4 28.7 23.2 10.5 13.6 17 30.4 17 48.8 0 44.2-35.8 80-80 80-17 0-33-5.5-46-14.6-14 17-32.4 29.5-53 37.5l-6 12L313 396c17-6.7 33-16.3 47-28.5 12.7 4.8 26 7.3 39.8 7.3 61.7 0 112-50.2 112-112 0-25.6-9-49-23.7-68C503 179 512 158 512 134.8zm-46.4 37.7c-18.5-13.5-41-21.7-65.6-21.7-5.3 0-10.6.4-15.8 1.2-30-40.7-77-65.2-128.2-65.2-34 0-66.3 11-93 30.4 7.5-23 28.8-39.5 54-39.5 8 0 15.2 1.6 22 4.3 15-29.5 45.5-50 81-50s66 20.5 81 50c6.8-2.7 14.2-4.3 21.8-4.3 31.6 0 57.2 25.6 57.2 57 0 14.6-5.6 27.7-14.4 37.8z"/></svg>
