<svg xmlns="http://www.w3.org/2000/svg" viewBox="0 0 512 512"><path d="M495 223h-81.6C405.4 151.2 345 95 271 95c-49.8 0-93.8 25.5-119.6 64H47c-8.8 0-16 7.2-16 16s7.2 16 16 16h88.8c-3.6 10.2-6 21-7.2 32H79c-8.8 0-16 7.2-16 16s7.2 16 16 16h49.6c1.3 11 3.6 21.8 7.2 32h-86c-10.3 0-18.8 7.2-18.8 16s8.5 16 19 16h101.4c25.8 38.6 69.8 64 119.6 64s93.8-25.4 119.6-64H428c10.5 0 19-7.2 19-16s-8.5-16-19-16h-21.8c3.6-10.2 6-21 7.2-32H495c8.8 0 16-7.2 16-16s-7.2-16-16-16zm-324.8-32H271c8.8 0 16-7.2 16-16s-7.2-16-16-16h-78c20-19.7 47.6-32 78-32 56.3 0 102.5 42 110.4 96H160.6c1.7-11.3 5-22 9.6-32zM271 351c-30.4 0-58-12.3-78-32h156c-20 19.7-47.6 32-78 32zm100.8-64H170.2c-4.7-10-8-20.7-9.6-32h220.8c-1.6 11.3-5 22-9.6 32z"/></svg>
