<svg 
 xmlns="http://www.w3.org/2000/svg"
 xmlns:xlink="http://www.w3.org/1999/xlink"
 width="489px" height="498px">
<path fill-rule="evenodd"  fill="rgb(0, 0, 0)"
 d="M412.541,497.999 L336.082,447.000 L344.965,433.678 L364.529,446.728 L364.529,392.302 L380.533,392.302 L380.533,457.400 L412.541,478.752 L444.549,457.400 L444.549,376.290 L444.549,344.265 L460.553,344.265 L460.553,376.290 L460.553,446.728 L480.118,433.678 L489.000,447.000 L412.541,497.999 ZM444.549,312.240 L460.553,312.240 L460.553,328.253 L444.549,328.253 L444.549,312.240 ZM420.543,456.351 L404.539,456.351 L404.539,376.290 L420.543,376.290 L420.543,456.351 ZM404.539,344.265 L420.543,344.265 L420.543,360.277 L404.539,360.277 L404.539,344.265 ZM364.529,376.290 L364.529,360.277 L380.533,360.277 L380.533,376.290 L364.529,376.290 ZM276.508,496.382 L212.492,496.382 L212.492,419.635 L52.453,259.512 L52.453,208.160 L68.457,208.160 L68.457,80.062 L196.488,80.062 L196.488,0.001 L351.838,0.001 L420.543,68.741 L420.543,208.160 L436.547,208.160 L436.547,259.512 L276.508,419.635 L276.508,496.382 ZM84.461,96.074 L84.461,208.160 L276.508,208.160 L276.508,160.124 L212.492,160.124 L100.465,160.124 L100.465,144.111 L212.492,144.111 L212.492,128.099 L100.465,128.099 L100.465,112.087 L212.492,112.087 L212.492,96.074 L84.461,96.074 ZM265.193,144.111 L233.185,112.087 L228.496,112.087 L228.496,128.099 L228.496,144.111 L265.193,144.111 ZM356.527,27.334 L356.527,32.025 L356.527,48.037 L356.527,64.050 L393.224,64.050 L356.527,27.334 ZM404.539,80.062 L340.524,80.062 L228.496,80.062 L228.496,64.050 L340.524,64.050 L340.524,48.037 L228.496,48.037 L228.496,32.025 L340.524,32.025 L340.524,16.013 L212.492,16.013 L212.492,80.062 L223.807,80.062 L239.811,96.074 L388.535,96.074 L388.535,112.087 L255.815,112.087 L271.819,128.099 L388.535,128.099 L388.535,144.111 L287.823,144.111 L292.512,148.803 L292.512,160.124 L388.535,160.124 L388.535,176.136 L292.512,176.136 L292.512,208.160 L404.539,208.160 L404.539,80.062 ZM409.228,264.204 L348.526,264.204 L348.526,248.191 L420.543,248.191 L420.543,224.173 L292.512,224.173 L68.457,224.173 L68.457,248.191 L332.522,248.191 L332.522,264.204 L79.772,264.204 L228.496,413.006 L228.496,480.370 L260.504,480.370 L260.504,413.006 L409.228,264.204 ZM260.504,192.148 L100.465,192.148 L100.465,176.136 L260.504,176.136 L260.504,192.148 ZM68.457,344.265 L84.461,344.265 L84.461,360.277 L68.457,360.277 L68.457,344.265 ZM84.461,456.351 L68.457,456.351 L68.457,376.290 L84.461,376.290 L84.461,456.351 ZM108.467,344.265 L124.471,344.265 L124.471,360.277 L108.467,360.277 L108.467,344.265 ZM108.467,457.400 L108.467,376.290 L124.471,376.290 L124.471,446.728 L144.036,433.678 L152.918,447.000 L76.459,497.999 L0.000,447.000 L8.882,433.678 L28.447,446.728 L28.447,328.253 L44.451,328.253 L44.451,457.400 L76.459,478.752 L108.467,457.400 ZM28.447,296.228 L44.451,296.228 L44.451,312.240 L28.447,312.240 L28.447,296.228 Z"/>
</svg>
