<svg xmlns="http://www.w3.org/2000/svg" viewBox="0 0 512 512"><path fill="#ffffff" d="M503 157.3l-42.3-42.4 31.8-31.8a15 15 0 0 0 0-21.2L450 19.3a15.4 15.4 0 0 0-21.2 0L397 51.1 354.6 8.8A30 30 0 0 0 312 51.2l148.5 148.5a30 30 0 0 0 42.5-42.4zM199.9 460.8L51.4 312.3a30 30 0 0 0-42.5 42.4l42.4 42.4-31.8 31.7a15 15 0 0 0 0 21.2l42.6 42.6a15 15 0 0 0 21.2 0l31.8-31.7 42.3 42.3a30 30 0 0 0 42.5-42.4zM269.7 178.5l-91.1 91.4 63.7 63.6 91.1-91.4zM460.6 242.1L269.7 51.2a30 30 0 0 0-42.4 42.4l191 191a30 30 0 0 0 42.3-42.5zM284.7 418.4l-191-191A30 30 0 1 0 51.5 270l190.9 190.9a30 30 0 0 0 42.4-42.4z"/></svg>
