<svg height="32" width="32" xmlns="http://www.w3.org/2000/svg"><g fill="#fff"><path d="M29.3 3H25V1a1 1 0 1 0-2 0v2h-6V1a1 1 0 1 0-2 0v2H9V1a1 1 0 1 0-2 0v2H2.7A2.7 2.7 0 0 0 0 5.7v23.6C0 30.8 1.2 32 2.7 32h26.6c1.5 0 2.7-1.2 2.7-2.7V5.7C32 4.2 30.8 3 29.3 3zm.7 26.3c0 .4-.3.7-.7.7H2.7a.7.7 0 0 1-.7-.7V5.7c0-.4.3-.7.7-.7H7v2a1 1 0 1 0 2 0V5h6v2a1 1 0 1 0 2 0V5h6v2a1 1 0 1 0 2 0V5h4.3c.4 0 .7.3.7.7v23.6z"/><path d="M7 12h4v3H7zM7 17h4v3H7zM7 22h4v3H7zM14 22h4v3h-4zM14 17h4v3h-4zM14 12h4v3h-4zM21 22h4v3h-4zM21 17h4v3h-4zM21 12h4v3h-4z"/></g></svg>
