<svg xmlns="http://www.w3.org/2000/svg" viewBox="0 0 376.9 44.3"><title>logo</title><path d="M94.2,230.6v42.7H85.4V256H76.6v17.4H67.9V230.6h8.7v17.1h8.8V230.6Z" transform="translate(-67.9 -229.8)"/><path d="M117.5,266.3h-9l-1.4,7.1h-9l10.3-42.7h9.3l10.3,42.7h-9Zm-1.7-8.2-1-4.9c-.5-3.1-1.3-8.2-1.7-11.7h-.2c-.4,3.5-1.1,8.7-1.7,11.7l-1,4.9Z" transform="translate(-67.9 -229.8)"/><path d="M131.9,230.6h8.5v34.5h8.4V230.6h8.5v34.5h8.4V230.6h8.5v42.7H131.9Z" transform="translate(-67.9 -229.8)"/><path d="M208,260.2c0,9-4.3,13.2-13.4,13.2H181.9V230.6h23.7v8.1h-15v8.2h4C203.7,246.9,208,252.5,208,260.2Zm-8.9,0c0-3.5-1.9-5.1-5.2-5.1h-3.3v10.1h3.3C197.2,265.1,199.1,263.7,199.1,260.2Z" transform="translate(-67.9 -229.8)"/><path d="M239.9,245.2c0,9.1-5.2,14.5-14.1,14.5H222v13.7h-8.7V230.6h12.4C234.6,230.6,239.9,236,239.9,245.2Zm-8.9,0c0-4.1-1.8-6.3-5.3-6.3H222v12.5h3.6C229.1,251.4,231,249.3,231,245.2Z" transform="translate(-67.9 -229.8)"/><path d="M249.4,257.6c-3.8-2.3-5.9-6.6-5.9-12.5,0-9.2,5-14.5,13.5-14.5h12.4v42.7h-8.7V259.5h-3.1l-6.8,13.9h-9.5Zm11.3-6.3V238.9h-3.6c-3.1,0-4.7,2.1-4.7,6.2s1.6,6.2,4.7,6.2Z" transform="translate(-67.9 -229.8)"/><path d="M303.1,230.6v42.7h-8.7V256h-8.8v17.4h-8.7V230.6h8.7v17.1h8.8V230.6Z" transform="translate(-67.9 -229.8)"/><path d="M309.5,260.3V243.7c0-9,4.9-13.9,13.2-13.9s13.3,4.9,13.6,13.9h-8.7c-.2-3.9-1.7-5.5-5-5.5s-4.1,1.7-4.1,5.5v16.6c0,3.7,1.5,5.4,4.1,5.4s4.9-1.6,5.1-5.4h8.7c-.2,9-5.1,13.8-13.8,13.8S309.5,269.3,309.5,260.3Z" transform="translate(-67.9 -229.8)"/><path d="M352.4,257.2,350,261v12.3h-8.5V230.6H350V247l2.2-4.8,6-11.6h9.9l-10.9,18.7,12.7,24h-9.8Z" transform="translate(-67.9 -229.8)"/><path d="M371.6,269.5a4.6,4.6,0,1,1,4.6,4.6A4.3,4.3,0,0,1,371.6,269.5Z" transform="translate(-67.9 -229.8)" fill="#1c71c9"/><path d="M398,259h-3.1v14.3h-8.7V230.6h12.4c8.5,0,13.5,5.2,13.5,14.2,0,5.8-2.1,10.1-5.9,12.3l8.1,16.2h-9.5Zm-3.1-8.2h3.6c3.1,0,4.7-2.1,4.7-5.9s-1.6-6-4.7-6h-3.6Z" transform="translate(-67.9 -229.8)" fill="#1c71c9"/><path d="M417.6,259.6v-29h9v29c0,3.9,1.5,6,4.6,6s4.6-2.1,4.6-6v-29h9v29c0,9-5.1,14.5-13.6,14.5S417.6,268.7,417.6,259.6Z" transform="translate(-67.9 -229.8)" fill="#1c71c9"/></svg>
