<svg xmlns="http://www.w3.org/2000/svg" viewBox="0 0 377.1 72.4"><title>logo-with-caption</title><path d="M94.2,223.9v42.7H85.4V249.2H76.6v17.4H67.9V223.9h8.7V241h8.8V223.9Z" transform="translate(-67.8 -223.1)"/><path d="M117.5,259.6h-9l-1.4,7.1h-9l10.3-42.7h9.3l10.3,42.7h-9Zm-1.7-8.2-1-4.9c-.5-3.1-1.3-8.2-1.7-11.7h-.2c-.4,3.5-1.1,8.7-1.7,11.7l-1,4.9Z" transform="translate(-67.8 -223.1)"/><path d="M131.9,223.9h8.5v34.5h8.4V223.9h8.5v34.5h8.4V223.9h8.5v42.7H131.9Z" transform="translate(-67.8 -223.1)"/><path d="M208,253.5c0,9-4.3,13.2-13.4,13.2H181.9V223.9h23.7V232h-15v8.2h4C203.7,240.2,208,245.8,208,253.5Zm-8.9,0c0-3.5-1.9-5.1-5.2-5.1h-3.3v10.1h3.3C197.2,258.4,199.1,256.9,199.1,253.5Z" transform="translate(-67.8 -223.1)"/><path d="M239.9,238.4c0,9.1-5.2,14.5-14.1,14.5H222v13.7h-8.7V223.9h12.4C234.6,223.9,239.9,229.3,239.9,238.4Zm-8.9,0c0-4.1-1.8-6.3-5.3-6.3H222v12.5h3.6C229.1,244.7,231,242.5,231,238.4Z" transform="translate(-67.8 -223.1)"/><path d="M249.4,250.9c-3.8-2.3-5.9-6.6-5.9-12.5,0-9.2,5-14.5,13.5-14.5h12.4v42.7h-8.7V252.8h-3.1l-6.8,13.9h-9.5Zm11.3-6.3V232.2h-3.6c-3.1,0-4.7,2.1-4.7,6.2s1.6,6.2,4.7,6.2Z" transform="translate(-67.8 -223.1)"/><path d="M303.1,223.9v42.7h-8.7V249.2h-8.8v17.4h-8.7V223.9h8.7V241h8.8V223.9Z" transform="translate(-67.8 -223.1)"/><path d="M309.5,253.6V237c0-9,4.9-13.9,13.2-13.9s13.3,4.9,13.6,13.9h-8.7c-.2-3.9-1.7-5.5-5-5.5s-4.1,1.7-4.1,5.5v16.6c0,3.7,1.5,5.4,4.1,5.4s4.9-1.6,5.1-5.4h8.7c-.2,9-5.1,13.8-13.8,13.8S309.5,262.5,309.5,253.6Z" transform="translate(-67.8 -223.1)"/><path d="M352.4,250.5l-2.4,3.8v12.3h-8.5V223.9H350v16.4l2.2-4.8,6-11.6h9.9l-10.9,18.7,12.7,24h-9.8Z" transform="translate(-67.8 -223.1)"/><path d="M371.6,262.8a4.6,4.6,0,1,1,4.6,4.6A4.3,4.3,0,0,1,371.6,262.8Z" transform="translate(-67.8 -223.1)" fill="#1c71c9"/><path d="M398,252.3h-3.1v14.3h-8.7V223.9h12.4c8.5,0,13.5,5.2,13.5,14.2,0,5.8-2.1,10.1-5.9,12.3l8.1,16.2h-9.5Zm-3.1-8.2h3.6c3.1,0,4.7-2.1,4.7-5.9s-1.6-6-4.7-6h-3.6Z" transform="translate(-67.8 -223.1)" fill="#1c71c9"/><path d="M417.6,252.9v-29h9v29c0,3.9,1.5,6,4.6,6s4.6-2.1,4.6-6v-29h9v29c0,9-5.1,14.5-13.6,14.5S417.6,261.9,417.6,252.9Z" transform="translate(-67.8 -223.1)" fill="#1c71c9"/><path d="M76.8,286.7a4.3,4.3,0,0,1-4.7,4.4c-2.6,0-4.3-1.7-4.3-4.8v-4.4c0-3.1,1.7-4.8,4.4-4.8s4.5,1.7,4.5,4.8v3H69.3v1.5c0,2.3,1.1,3.3,2.9,3.3s2.9-.9,3.1-2.9Zm-7.5-4.9v1.6h5.8v-1.6c0-2.3-1.1-3.3-3-3.3S69.3,279.6,69.3,281.8Z" transform="translate(-67.8 -223.1)"/><path d="M87.2,284.4l-.9,1.2v5.3H84.8v-5.3l-.9-1.2-4.2,6.4H78l5.1-7.6-4.7-5.9h1.9l2.5,3.3,2.1,2.8v-6.1h1.5v6.1l2.1-2.7,2.5-3.3h1.9l-4.7,5.9,5.1,7.6H91.4Z" transform="translate(-67.8 -223.1)"/><path d="M103.1,286.7a4.3,4.3,0,0,1-4.7,4.4c-2.6,0-4.3-1.7-4.3-4.8v-4.4c0-3.1,1.7-4.8,4.4-4.8s4.5,1.7,4.5,4.8v3H95.6v1.5c0,2.3,1.1,3.3,2.9,3.3s2.9-.9,3.1-2.9Zm-7.5-4.9v1.6h5.8v-1.6c0-2.3-1.1-3.3-3-3.3S95.6,279.6,95.6,281.8Z" transform="translate(-67.8 -223.1)"/><path d="M104.2,289.4h1a16.4,16.4,0,0,0,1.3-6.1c.1-2,.2-4,.2-6h7v12.1h1.5v4.4h-1.5v-3h-8v3h-1.5Zm8,0V278.8h-4c0,1.6-.1,3.2-.2,4.8a20.2,20.2,0,0,1-1.1,5.9Z" transform="translate(-67.8 -223.1)"/><path d="M125.5,277.3v13.5H124v-6.3h-5.1v6.3h-1.5V277.3h1.5v5.8H124v-5.8Z" transform="translate(-67.8 -223.1)"/><path d="M137.6,286.7a4.3,4.3,0,0,1-4.7,4.4c-2.6,0-4.3-1.7-4.3-4.8v-4.4c0-3.1,1.7-4.8,4.4-4.8s4.5,1.7,4.5,4.8v3h-7.3v1.5c0,2.3,1.1,3.3,2.9,3.3s2.9-.9,3.1-2.9Zm-7.5-4.9v1.6h5.8v-1.6c0-2.3-1.1-3.3-3-3.3S130.1,279.6,130.1,281.8Z" transform="translate(-67.8 -223.1)"/><path d="M148.8,287c0,2.4-1.5,3.9-4.4,3.9h-3.9V277.4H144c2.6,0,4.1,1.4,4.1,3.6a3.4,3.4,0,0,1-1.5,2.7A3.5,3.5,0,0,1,148.8,287Zm-6.8-3.8h2c1.7,0,2.6-.8,2.6-2.2s-.9-2.2-2.6-2.2h-2Zm5.3,3.8c0-1.5-1-2.4-2.9-2.4H142v4.8h2.4C146.3,289.4,147.3,288.5,147.3,287Z" transform="translate(-67.8 -223.1)"/><path d="M159.5,277.3v13.5H158v-6.3h-5.1v6.3h-1.5V277.3h1.5v5.8H158v-5.8Z" transform="translate(-67.8 -223.1)"/><path d="M162.6,286.3v-4.3c0-3.2,1.8-4.9,4.5-4.9s4.5,1.7,4.5,4.9v4.3c0,3.2-1.8,4.9-4.5,4.9S162.6,289.4,162.6,286.3Zm7.5,0v-4.3c0-2.3-1.1-3.4-3-3.4s-3,1.1-3,3.4v4.3c0,2.3,1.1,3.4,3,3.4S170,288.6,170,286.3Z" transform="translate(-67.8 -223.1)"/><path d="M183.3,286.7a4.3,4.3,0,0,1-4.7,4.4c-2.6,0-4.3-1.7-4.3-4.8v-4.4c0-3.1,1.7-4.8,4.4-4.8s4.5,1.7,4.5,4.8v3h-7.3v1.5c0,2.3,1.1,3.3,2.9,3.3s2.9-.9,3.1-2.9Zm-7.5-4.9v1.6h5.8v-1.6c0-2.3-1.1-3.3-3-3.3S175.8,279.6,175.8,281.8Z" transform="translate(-67.8 -223.1)"/><path d="M192.1,277.3h1.5v7.7c0,1,0,2-.1,3h.1l.9-2,4.3-8.8h1.6v13.5h-1.5v-7.3c0-1.4.1-2.5.1-3.6h-.1a21.4,21.4,0,0,1-1.1,2.4l-4.2,8.5h-1.6Z" transform="translate(-67.8 -223.1)"/><path d="M211.9,277.3v13.5h-1.5v-6.3h-5.1v6.3h-1.5V277.3h1.5v5.8h5.1v-5.8Z" transform="translate(-67.8 -223.1)"/><path d="M228,282.5v3.3a4.9,4.9,0,0,1-5.1,5.2h-.7v4.4h-1.5V291h-.7a4.9,4.9,0,0,1-5.1-5.2v-3.3a5,5,0,0,1,5.1-5.3h.7v-4.8h1.5v4.8h.7A5,5,0,0,1,228,282.5Zm-7.3,7.1V278.6h-.7c-2,0-3.6,1.3-3.6,3.9v3.3a3.4,3.4,0,0,0,3.6,3.7Zm5.7-7.1c0-2.6-1.6-3.9-3.6-3.9h-.7v10.9h.7a3.4,3.4,0,0,0,3.6-3.7Z" transform="translate(-67.8 -223.1)"/><path d="M230.8,286.3v-4.3c0-3.2,1.8-4.9,4.5-4.9s4.5,1.7,4.5,4.9v4.3c0,3.2-1.8,4.9-4.5,4.9S230.8,289.4,230.8,286.3Zm7.5,0v-4.3c0-2.3-1.1-3.4-3-3.4s-3,1.1-3,3.4v4.3c0,2.3,1.1,3.4,3,3.4S238.2,288.6,238.2,286.3Z" transform="translate(-67.8 -223.1)"/><path d="M251.6,282.2v3.9c0,3.3-1.6,5.1-4.2,5.1a3.8,3.8,0,0,1-3.1-1.5v5.8h-1.5V277.3H244l.2,1.3a3.8,3.8,0,0,1,3.2-1.6C249.9,277,251.6,278.8,251.6,282.2Zm-1.5,0c0-2.6-1.1-3.8-3-3.8s-2.8,1.2-2.8,3.7v3.9c0,2.2,1.1,3.6,2.8,3.6s3-1.1,3-3.6Z" transform="translate(-67.8 -223.1)"/><path d="M265.1,277.3v13.5h-1.5v-7.4c0-1.3.1-2.3.1-3.3h-.1c-.4,1-.7,2.1-1.2,3.1l-1.9,4.1h-1.5l-1.9-4.1c-.4-1-.8-2.1-1.2-3.1H256c0,1,.1,2,.1,3.3v7.4h-1.5V277.3h1.6l2.7,6.1.9,2.1h.1l.9-2.1,2.7-6.1Z" transform="translate(-67.8 -223.1)"/><path d="M276.6,281.5v9.3h-1.3v-1.3a3.6,3.6,0,0,1-3.1,1.6,3.9,3.9,0,0,1-4.3-4.1c0-2.6,1.7-4,4.6-4h2.7v-1.4c0-2-.9-3-2.7-3a2.5,2.5,0,0,0-2.7,2.4h-1.5a3.9,3.9,0,0,1,4.3-3.8C275,277,276.6,278.8,276.6,281.5Zm-1.5,5.5v-2.6h-2.7c-2,0-3,.9-3,2.6s1.2,2.6,3,2.6A2.6,2.6,0,0,0,275.1,287Z" transform="translate(-67.8 -223.1)"/><path d="M288.1,290.8H280V277.3h1.5v12.1h5V277.3h1.5v12.1h1.5v4.4h-1.5Z" transform="translate(-67.8 -223.1)"/><path d="M291.8,277.3h1.5v7.7c0,1,0,2-.1,3h.1l.9-2,4.3-8.8h1.6v13.5h-1.5v-7.3c0-1.4.1-2.5.1-3.6h-.1a21.4,21.4,0,0,1-1.1,2.4l-4.2,8.5h-1.6Z" transform="translate(-67.8 -223.1)"/><path d="M303.2,286.3v-4.3c0-3.2,1.8-4.9,4.5-4.9s4.5,1.7,4.5,4.9v4.3c0,3.2-1.8,4.9-4.5,4.9S303.2,289.4,303.2,286.3Zm7.5,0v-4.3c0-2.3-1.1-3.4-3-3.4s-3,1.1-3,3.4v4.3c0,2.3,1.1,3.4,3,3.4S310.6,288.6,310.6,286.3Z" transform="translate(-67.8 -223.1)"/><path d="M323.4,277.3v13.5h-1.5v-6.3h-5.1v6.3h-1.5V277.3h1.5v5.8h5.1v-5.8Z" transform="translate(-67.8 -223.1)"/><path d="M335,277.3v13.5h-1.5v-6.3h-5.1v6.3h-1.5V277.3h1.5v5.8h5.1v-5.8Z" transform="translate(-67.8 -223.1)"/><path d="M338,286.3v-4.3c0-3.2,1.8-4.9,4.5-4.9s4.5,1.7,4.5,4.9v4.3c0,3.2-1.8,4.9-4.5,4.9S338,289.4,338,286.3Zm7.5,0v-4.3c0-2.3-1.1-3.4-3-3.4s-3,1.1-3,3.4v4.3c0,2.3,1.1,3.4,3,3.4S345.5,288.6,345.5,286.3Z" transform="translate(-67.8 -223.1)"/><path d="M358.8,286.7a4.3,4.3,0,0,1-4.7,4.4c-2.6,0-4.3-1.7-4.3-4.8v-4.4c0-3.1,1.7-4.8,4.4-4.8s4.5,1.7,4.5,4.8v3h-7.3v1.5c0,2.3,1.1,3.3,2.9,3.3s2.9-.9,3.1-2.9Zm-7.5-4.9v1.6h5.8v-1.6c0-2.3-1.1-3.3-3-3.3S351.3,279.6,351.3,281.8Z" transform="translate(-67.8 -223.1)"/><path d="M367.5,277.3H369v7.7c0,1,0,2-.1,3h.1l.9-2,4.3-8.8h1.6v13.5h-1.5v-7.3c0-1.4.1-2.5.1-3.6h-.1a21.4,21.4,0,0,1-1.1,2.4l-4.2,8.5h-1.6Z" transform="translate(-67.8 -223.1)"/><path d="M387.1,287a4.1,4.1,0,0,1-4.4,4.1c-2.8,0-4.5-1.7-4.6-4h1.5c.1,1.5,1.2,2.5,3.1,2.5a2.6,2.6,0,0,0,2.9-2.7c0-1.4-1.1-2.3-3-2.3h-2v-1.4h1.9c1.6,0,2.7-.7,2.7-2.2a2.3,2.3,0,0,0-2.5-2.3c-1.7,0-2.6.8-2.7,2.6h-1.5c.1-2.6,1.6-4.1,4.2-4.1a3.8,3.8,0,0,1,4.1,3.6,3.1,3.1,0,0,1-1.9,3A3.4,3.4,0,0,1,387.1,287Z" transform="translate(-67.8 -223.1)"/><path d="M387.9,289.4h1a16.4,16.4,0,0,0,1.3-6.1c.1-2,.2-4,.2-6h7v12.1h1.5v4.4h-1.5v-3h-8v3h-1.5Zm8,0V278.8h-4c0,1.6-.1,3.2-.2,4.8a20.2,20.2,0,0,1-1.1,5.9Z" transform="translate(-67.8 -223.1)"/><path d="M409.1,281.5v9.3h-1.3v-1.3a3.6,3.6,0,0,1-3.1,1.6,3.9,3.9,0,0,1-4.3-4.1c0-2.6,1.7-4,4.6-4h2.7v-1.4c0-2-.9-3-2.7-3a2.5,2.5,0,0,0-2.7,2.4h-1.5A3.9,3.9,0,0,1,405,277C407.5,277,409.1,278.8,409.1,281.5Zm-1.5,5.5v-2.6h-2.7c-2,0-3,.9-3,2.6s1.2,2.6,3,2.6A2.6,2.6,0,0,0,407.6,287Z" transform="translate(-67.8 -223.1)"/><path d="M420.7,277.3v13.5h-1.5v-6.3H414v6.3h-1.5V277.3H414v5.8h5.1v-5.8Z" transform="translate(-67.8 -223.1)"/><path d="M424.1,277.3h1.5v7.7c0,1,0,2-.1,3h.1l.9-2,4.3-8.8h1.6v13.5h-1.5v-7.3c0-1.4.1-2.5.1-3.6h-.1a21.4,21.4,0,0,1-1.1,2.4l-4.2,8.5h-1.6Z" transform="translate(-67.8 -223.1)"/><path d="M444.5,286.7a4.3,4.3,0,0,1-4.7,4.4c-2.6,0-4.3-1.7-4.3-4.8v-4.4c0-3.1,1.7-4.8,4.4-4.8s4.5,1.7,4.5,4.8v3H437v1.5c0,2.3,1.1,3.3,2.9,3.3s2.9-.9,3.1-2.9Zm-7.5-4.9v1.6h5.8v-1.6c0-2.3-1.1-3.3-3-3.3S437,279.6,437,281.8Z" transform="translate(-67.8 -223.1)"/></svg>
