<svg xmlns="http://www.w3.org/2000/svg" viewBox="0 0 430.8 81.8"><title>logo-with-caption-age</title><path d="M68.6,224.3V267H59.9V249.6H51.1V267H42.4V224.3h8.7v17.1h8.8V224.3Z" transform="translate(-42.2 -214)" fill="#a7b1bb"/><path d="M92,259.9h-9L81.5,267h-9l10.3-42.7h9.3L102.3,267h-9Zm-1.7-8.2-1-4.9c-.5-3.1-1.3-8.2-1.7-11.7h-.2c-.4,3.5-1.1,8.7-1.7,11.7l-1,4.9Z" transform="translate(-42.2 -214)" fill="#a7b1bb"/><path d="M106.3,224.3h8.5v34.5h8.4V224.3h8.5v34.5h8.4V224.3h8.5V267H106.3Z" transform="translate(-42.2 -214)" fill="#a7b1bb"/><path d="M182.4,253.8c0,9-4.3,13.2-13.4,13.2H156.3V224.3h23.7v8.1h-15v8.2h4C178.2,240.6,182.4,246.1,182.4,253.8Zm-8.9,0c0-3.5-1.9-5.1-5.2-5.1h-3.3v10.1h3.3C171.6,258.8,173.5,257.3,173.5,253.8Z" transform="translate(-42.2 -214)" fill="#a7b1bb"/><path d="M214.3,238.8c0,9.1-5.2,14.5-14.1,14.5h-3.7V267h-8.7V224.3h12.4C209,224.3,214.3,229.7,214.3,238.8Zm-8.9,0c0-4.1-1.8-6.3-5.3-6.3h-3.6V245h3.6C203.6,245,205.4,242.9,205.4,238.8Z" transform="translate(-42.2 -214)" fill="#a7b1bb"/><path d="M223.8,251.3c-3.8-2.3-5.9-6.6-5.9-12.5,0-9.2,5-14.5,13.5-14.5h12.4V267h-8.7V253.2H232L225.2,267h-9.5Zm11.3-6.3V232.5h-3.6c-3.1,0-4.7,2.1-4.7,6.2s1.6,6.2,4.7,6.2Z" transform="translate(-42.2 -214)" fill="#a7b1bb"/><path d="M277.6,224.3V267h-8.7V249.6h-8.8V267h-8.7V224.3h8.7v17.1h8.8V224.3Z" transform="translate(-42.2 -214)" fill="#a7b1bb"/><path d="M283.9,254V237.4c0-9,4.9-13.9,13.2-13.9s13.3,4.9,13.6,13.9h-8.7c-.2-3.9-1.7-5.5-5-5.5s-4.1,1.7-4.1,5.5V254c0,3.7,1.5,5.4,4.1,5.4s4.9-1.6,5.1-5.4h8.7c-.2,9-5.1,13.8-13.8,13.8S283.9,262.9,283.9,254Z" transform="translate(-42.2 -214)" fill="#a7b1bb"/><path d="M326.8,250.8l-2.4,3.8V267h-8.5V224.3h8.5v16.4l2.2-4.8,6-11.6h9.9L331.6,243l12.7,24h-9.8Z" transform="translate(-42.2 -214)" fill="#a7b1bb"/><path d="M346,263.2a4.6,4.6,0,1,1,4.6,4.6A4.3,4.3,0,0,1,346,263.2Z" transform="translate(-42.2 -214)" fill="#a7b1bb"/><path d="M372.4,252.7h-3.1V267h-8.7V224.3h12.4c8.5,0,13.5,5.2,13.5,14.2,0,5.8-2.1,10.1-5.9,12.3l8.1,16.2h-9.5Zm-3.1-8.2h3.6c3.1,0,4.7-2.1,4.7-5.9s-1.6-6-4.7-6h-3.6Z" transform="translate(-42.2 -214)" fill="#a7b1bb"/><path d="M392,253.3v-29h9v29c0,3.9,1.5,6,4.6,6s4.6-2.1,4.6-6v-29h9v29c0,9-5.1,14.5-13.6,14.5S392,262.3,392,253.3Z" transform="translate(-42.2 -214)" fill="#a7b1bb"/><path d="M51.2,287.1a4.3,4.3,0,0,1-4.7,4.4c-2.6,0-4.3-1.7-4.3-4.8v-4.4c0-3.1,1.7-4.8,4.4-4.8s4.5,1.7,4.5,4.8v3H43.7v1.5c0,2.3,1.1,3.3,2.9,3.3s2.9-.9,3.1-2.9Zm-7.5-4.9v1.6h5.8v-1.6c0-2.3-1.1-3.3-3-3.3S43.7,280,43.7,282.2Z" transform="translate(-42.2 -214)" fill="#a7b1bb"/><path d="M61.6,284.8l-.9,1.2v5.3H59.3V286l-.9-1.2-4.2,6.4H52.4l5.1-7.6-4.7-5.9h1.9l2.5,3.3,2.1,2.8v-6.1h1.5v6.1l2.1-2.7,2.5-3.3h1.9l-4.7,5.9,5.1,7.6H65.8Z" transform="translate(-42.2 -214)" fill="#a7b1bb"/><path d="M77.5,287.1a4.3,4.3,0,0,1-4.7,4.4c-2.6,0-4.3-1.7-4.3-4.8v-4.4c0-3.1,1.7-4.8,4.4-4.8s4.5,1.7,4.5,4.8v3H70v1.5c0,2.3,1.1,3.3,2.9,3.3s2.9-.9,3.1-2.9ZM70,282.2v1.6h5.8v-1.6c0-2.3-1.1-3.3-3-3.3S70,280,70,282.2Z" transform="translate(-42.2 -214)" fill="#a7b1bb"/><path d="M78.7,289.8h1a16.4,16.4,0,0,0,1.3-6.1c.1-2,.2-4,.2-6h7v12.1h1.5v4.4H88.2v-3h-8v3H78.7Zm8,0V279.2h-4c0,1.6-.1,3.2-.2,4.8a20.2,20.2,0,0,1-1.1,5.9Z" transform="translate(-42.2 -214)" fill="#a7b1bb"/><path d="M100,277.7v13.5H98.4v-6.3H93.3v6.3H91.8V277.7h1.5v5.8h5.1v-5.8Z" transform="translate(-42.2 -214)" fill="#a7b1bb"/><path d="M112.1,287.1a4.3,4.3,0,0,1-4.7,4.4c-2.6,0-4.3-1.7-4.3-4.8v-4.4c0-3.1,1.7-4.8,4.4-4.8s4.5,1.7,4.5,4.8v3h-7.3v1.5c0,2.3,1.1,3.3,2.9,3.3s2.9-.9,3.1-2.9Zm-7.5-4.9v1.6h5.8v-1.6c0-2.3-1.1-3.3-3-3.3S104.6,280,104.6,282.2Z" transform="translate(-42.2 -214)" fill="#a7b1bb"/><path d="M123.2,287.3c0,2.4-1.5,3.9-4.4,3.9h-3.9V277.8h3.5c2.6,0,4.1,1.4,4.1,3.6a3.4,3.4,0,0,1-1.5,2.7A3.5,3.5,0,0,1,123.2,287.3Zm-6.8-3.8h2c1.7,0,2.6-.8,2.6-2.2s-.9-2.2-2.6-2.2h-2Zm5.3,3.8c0-1.5-1-2.4-2.9-2.4h-2.4v4.8h2.4C120.8,289.8,121.7,288.9,121.7,287.3Z" transform="translate(-42.2 -214)" fill="#a7b1bb"/><path d="M134,277.7v13.5h-1.5v-6.3h-5.1v6.3h-1.5V277.7h1.5v5.8h5.1v-5.8Z" transform="translate(-42.2 -214)" fill="#a7b1bb"/><path d="M137,286.6v-4.3c0-3.2,1.8-4.9,4.5-4.9s4.5,1.7,4.5,4.9v4.3c0,3.2-1.8,4.9-4.5,4.9S137,289.8,137,286.6Zm7.5,0v-4.3c0-2.3-1.1-3.4-3-3.4s-3,1.1-3,3.4v4.3c0,2.3,1.1,3.4,3,3.4S144.5,289,144.5,286.6Z" transform="translate(-42.2 -214)" fill="#a7b1bb"/><path d="M157.8,287.1a4.3,4.3,0,0,1-4.7,4.4c-2.6,0-4.3-1.7-4.3-4.8v-4.4c0-3.1,1.7-4.8,4.4-4.8s4.5,1.7,4.5,4.8v3h-7.3v1.5c0,2.3,1.1,3.3,2.9,3.3s2.9-.9,3.1-2.9Zm-7.5-4.9v1.6h5.8v-1.6c0-2.3-1.1-3.3-3-3.3S150.3,280,150.3,282.2Z" transform="translate(-42.2 -214)" fill="#a7b1bb"/><path d="M166.5,277.7H168v7.7c0,1,0,2-.1,3h.1l.9-2,4.3-8.8h1.6v13.5h-1.5v-7.3c0-1.4.1-2.5.1-3.6h-.1a21.3,21.3,0,0,1-1.1,2.4l-4.2,8.5h-1.6Z" transform="translate(-42.2 -214)" fill="#a7b1bb"/><path d="M186.4,277.7v13.5h-1.5v-6.3h-5.1v6.3h-1.5V277.7h1.5v5.8h5.1v-5.8Z" transform="translate(-42.2 -214)" fill="#a7b1bb"/><path d="M202.5,282.9v3.3a4.9,4.9,0,0,1-5.1,5.2h-.7v4.4h-1.5v-4.4h-.7a4.9,4.9,0,0,1-5.1-5.2v-3.3a5,5,0,0,1,5.1-5.3h.7v-4.8h1.5v4.8h.7A5,5,0,0,1,202.5,282.9Zm-7.3,7.1V279h-.7c-2,0-3.6,1.3-3.6,3.9v3.3a3.4,3.4,0,0,0,3.6,3.7Zm5.7-7.1c0-2.6-1.6-3.9-3.6-3.9h-.7v10.9h.7a3.4,3.4,0,0,0,3.6-3.7Z" transform="translate(-42.2 -214)" fill="#a7b1bb"/><path d="M205.2,286.6v-4.3c0-3.2,1.8-4.9,4.5-4.9s4.5,1.7,4.5,4.9v4.3c0,3.2-1.8,4.9-4.5,4.9S205.2,289.8,205.2,286.6Zm7.5,0v-4.3c0-2.3-1.1-3.4-3-3.4s-3,1.1-3,3.4v4.3c0,2.3,1.1,3.4,3,3.4S212.6,289,212.6,286.6Z" transform="translate(-42.2 -214)" fill="#a7b1bb"/><path d="M226.1,282.6v3.9c0,3.3-1.6,5.1-4.2,5.1a3.8,3.8,0,0,1-3.1-1.5v5.8h-1.5V277.7h1.2l.2,1.3a3.8,3.8,0,0,1,3.2-1.6C224.3,277.4,226.1,279.2,226.1,282.6Zm-1.5,0c0-2.6-1.1-3.8-3-3.8s-2.8,1.2-2.8,3.7v3.9c0,2.2,1.1,3.6,2.8,3.6s3-1.1,3-3.6Z" transform="translate(-42.2 -214)" fill="#a7b1bb"/><path d="M239.5,277.7v13.5h-1.5v-7.4c0-1.3.1-2.3.1-3.3h-.1c-.4,1-.7,2.1-1.2,3.1l-1.9,4.1h-1.5l-1.9-4.1c-.4-1-.8-2.1-1.2-3.1h-.1c0,1,.1,2,.1,3.3v7.4h-1.5V277.7h1.6l2.7,6.1.9,2.1h.1l.9-2.1,2.7-6.1Z" transform="translate(-42.2 -214)" fill="#a7b1bb"/><path d="M251,281.9v9.3h-1.3V290a3.6,3.6,0,0,1-3.1,1.6,3.9,3.9,0,0,1-4.3-4.1c0-2.6,1.7-4,4.6-4h2.7v-1.4c0-2-.9-3-2.7-3a2.5,2.5,0,0,0-2.7,2.4h-1.5a3.9,3.9,0,0,1,4.3-3.8C249.5,277.4,251,279.1,251,281.9Zm-1.5,5.5v-2.6h-2.7c-2,0-3,.9-3,2.6s1.2,2.6,3,2.6A2.6,2.6,0,0,0,249.5,287.4Z" transform="translate(-42.2 -214)" fill="#a7b1bb"/><path d="M262.5,291.2h-8.1V277.7h1.5v12.1h5V277.7h1.5v12.1H264v4.4h-1.5Z" transform="translate(-42.2 -214)" fill="#a7b1bb"/><path d="M266.3,277.7h1.5v7.7c0,1,0,2-.1,3h.1l.9-2,4.3-8.8h1.6v13.5H273v-7.3c0-1.4.1-2.5.1-3.6h-.1a21.2,21.2,0,0,1-1.1,2.4l-4.2,8.5h-1.6Z" transform="translate(-42.2 -214)" fill="#a7b1bb"/><path d="M277.6,286.6v-4.3c0-3.2,1.8-4.9,4.5-4.9s4.5,1.7,4.5,4.9v4.3c0,3.2-1.8,4.9-4.5,4.9S277.6,289.8,277.6,286.6Zm7.5,0v-4.3c0-2.3-1.1-3.4-3-3.4s-3,1.1-3,3.4v4.3c0,2.3,1.1,3.4,3,3.4S285.1,289,285.1,286.6Z" transform="translate(-42.2 -214)" fill="#a7b1bb"/><path d="M297.8,277.7v13.5h-1.5v-6.3h-5.1v6.3h-1.5V277.7h1.5v5.8h5.1v-5.8Z" transform="translate(-42.2 -214)" fill="#a7b1bb"/><path d="M309.4,277.7v13.5h-1.5v-6.3h-5.1v6.3h-1.5V277.7h1.5v5.8h5.1v-5.8Z" transform="translate(-42.2 -214)" fill="#a7b1bb"/><path d="M312.4,286.6v-4.3c0-3.2,1.8-4.9,4.5-4.9s4.5,1.7,4.5,4.9v4.3c0,3.2-1.8,4.9-4.5,4.9S312.4,289.8,312.4,286.6Zm7.5,0v-4.3c0-2.3-1.1-3.4-3-3.4s-3,1.1-3,3.4v4.3c0,2.3,1.1,3.4,3,3.4S319.9,289,319.9,286.6Z" transform="translate(-42.2 -214)" fill="#a7b1bb"/><path d="M333.2,287.1a4.3,4.3,0,0,1-4.7,4.4c-2.6,0-4.3-1.7-4.3-4.8v-4.4c0-3.1,1.7-4.8,4.4-4.8s4.5,1.7,4.5,4.8v3h-7.3v1.5c0,2.3,1.1,3.3,2.9,3.3s2.9-.9,3.1-2.9Zm-7.5-4.9v1.6h5.8v-1.6c0-2.3-1.1-3.3-3-3.3S325.7,280,325.7,282.2Z" transform="translate(-42.2 -214)" fill="#a7b1bb"/><path d="M341.9,277.7h1.5v7.7c0,1,0,2-.1,3h.1l.9-2,4.3-8.8h1.6v13.5h-1.5v-7.3c0-1.4.1-2.5.1-3.6h-.1a21.5,21.5,0,0,1-1.1,2.4l-4.2,8.5h-1.6Z" transform="translate(-42.2 -214)" fill="#a7b1bb"/><path d="M361.5,287.4a4.1,4.1,0,0,1-4.4,4.1c-2.8,0-4.5-1.7-4.6-4H354c.1,1.5,1.2,2.5,3.1,2.5a2.6,2.6,0,0,0,2.9-2.7c0-1.4-1.1-2.3-3-2.3h-2v-1.4h1.8c1.6,0,2.7-.7,2.7-2.2A2.3,2.3,0,0,0,357,279c-1.7,0-2.6.8-2.7,2.6h-1.5c.1-2.6,1.6-4.1,4.2-4.1a3.8,3.8,0,0,1,4.1,3.6,3.1,3.1,0,0,1-1.9,3A3.4,3.4,0,0,1,361.5,287.4Z" transform="translate(-42.2 -214)" fill="#a7b1bb"/><path d="M362.3,289.8h1a16.4,16.4,0,0,0,1.3-6.1c.1-2,.2-4,.2-6h7v12.1h1.5v4.4h-1.5v-3h-8v3h-1.5Zm8,0V279.2h-4c0,1.6-.1,3.2-.2,4.8a20.3,20.3,0,0,1-1.1,5.9Z" transform="translate(-42.2 -214)" fill="#a7b1bb"/><path d="M383.5,281.9v9.3h-1.3V290a3.6,3.6,0,0,1-3.1,1.6,3.9,3.9,0,0,1-4.3-4.1c0-2.6,1.7-4,4.6-4H382v-1.4c0-2-.9-3-2.7-3a2.5,2.5,0,0,0-2.7,2.4h-1.5a3.9,3.9,0,0,1,4.3-3.8C382,277.4,383.5,279.1,383.5,281.9Zm-1.5,5.5v-2.6h-2.7c-2,0-3,.9-3,2.6s1.2,2.6,3,2.6A2.6,2.6,0,0,0,382,287.4Z" transform="translate(-42.2 -214)" fill="#a7b1bb"/><path d="M395.1,277.7v13.5h-1.5v-6.3h-5.1v6.3h-1.5V277.7h1.5v5.8h5.1v-5.8Z" transform="translate(-42.2 -214)" fill="#a7b1bb"/><path d="M398.5,277.7H400v7.7c0,1,0,2-.1,3h.1l.9-2,4.3-8.8h1.6v13.5h-1.5v-7.3c0-1.4.1-2.5.1-3.6h-.1a21.5,21.5,0,0,1-1.1,2.4l-4.2,8.5h-1.6Z" transform="translate(-42.2 -214)" fill="#a7b1bb"/><path d="M418.9,287.1a4.3,4.3,0,0,1-4.7,4.4c-2.6,0-4.3-1.7-4.3-4.8v-4.4c0-3.1,1.7-4.8,4.4-4.8s4.5,1.7,4.5,4.8v3h-7.3v1.5c0,2.3,1.1,3.3,2.9,3.3s2.9-.9,3.1-2.9Zm-7.5-4.9v1.6h5.8v-1.6c0-2.3-1.1-3.3-3-3.3S411.4,280,411.4,282.2Z" transform="translate(-42.2 -214)" fill="#a7b1bb"/><circle cx="410.8" cy="20" r="20" fill="#f1f2f5"/><path d="M445.3,225.6v16.8h-2.8v-13l-2.4,1.5v-3.1l3.3-2.2Z" transform="translate(-42.2 -214)" fill="#a7b1bb"/><path d="M457.1,237.1v.7c0,3-1.8,4.9-4.7,4.9s-4.7-1.8-4.7-4.9v-.7a4.2,4.2,0,0,1,1.7-3.5,4.5,4.5,0,0,1-1.4-3.3v-.4c0-2.8,1.7-4.6,4.4-4.6a4.2,4.2,0,0,1,4.4,4.6v.4a4.5,4.5,0,0,1-1.4,3.3A4.3,4.3,0,0,1,457.1,237.1Zm-2.8,0c0-1.4-.6-2.1-1.8-2.1s-1.8.7-1.8,2.1v.6c0,1.4.6,2.1,1.8,2.1s1.8-.7,1.8-2.1Zm-3.4-6.8c0,1.3.6,2,1.6,2s1.6-.7,1.6-2V230c0-1.3-.6-1.9-1.6-1.9s-1.6.6-1.6,1.9Z" transform="translate(-42.2 -214)" fill="#a7b1bb"/><path d="M468.4,236.3H465v3.5h-2.6v-3.5H459v-2.6h3.4v-3.5H465v3.5h3.4Z" transform="translate(-42.2 -214)" fill="#a7b1bb"/></svg>
