<svg xmlns="http://www.w3.org/2000/svg" viewBox="0 0 426.9 54.1"><title>logo</title><path d="M94.2,230.6v42.8H85.4V256H76.6v17.4H67.9V230.6h8.7v17.1h8.8V230.6Z" transform="translate(-67.9 -220)"/><path d="M117.5,266.3h-9l-1.4,7.1h-9l10.3-42.8h9.2l10.3,42.8h-9Zm-1.7-8.3-1-4.8c-.5-3.1-1.2-8.3-1.7-11.8h-.2c-.4,3.5-1.1,8.7-1.7,11.8l-1,4.8Z" transform="translate(-67.9 -220)"/><path d="M131.9,230.6h8.5v34.5h8.4V230.6h8.6v34.5h8.4V230.6h8.5v42.8H131.9Z" transform="translate(-67.9 -220)"/><path d="M208,260.2c0,9-4.3,13.2-13.3,13.2H181.9V230.6h23.7v8.2h-15v8.1h4.1C203.7,246.9,208,252.5,208,260.2Zm-8.9,0c0-3.6-1.9-5.1-5.2-5.1h-3.3v10h3.3C197.2,265.1,199.1,263.7,199.1,260.2Z" transform="translate(-67.9 -220)"/><path d="M239.9,245.2c0,9.1-5.3,14.4-14.1,14.4H222v13.8h-8.6V230.6h12.4C234.6,230.6,239.9,236,239.9,245.2Zm-8.9,0c0-4.2-1.9-6.3-5.4-6.3H222v12.5h3.6C229.1,251.4,231,249.3,231,245.2Z" transform="translate(-67.9 -220)"/><path d="M249.4,257.6c-3.8-2.2-5.9-6.6-5.9-12.5,0-9.1,5-14.5,13.4-14.5h12.4v42.8h-8.6V259.5h-3.1l-6.8,13.9h-9.5Zm11.3-6.3V238.9h-3.6c-3.1,0-4.7,2.1-4.7,6.2s1.6,6.2,4.7,6.2Z" transform="translate(-67.9 -220)"/><path d="M303.1,230.6v42.8h-8.7V256h-8.8v17.4h-8.7V230.6h8.7v17.1h8.8V230.6Z" transform="translate(-67.9 -220)"/><path d="M309.5,260.3V243.7c0-9,4.9-13.9,13.2-13.9s13.3,4.9,13.6,13.9h-8.6c-.3-3.9-1.7-5.5-5-5.5s-4.2,1.7-4.2,5.5v16.6c0,3.7,1.5,5.4,4.2,5.4s4.8-1.6,5.1-5.4h8.7c-.2,9-5.2,13.8-13.8,13.8S309.5,269.3,309.5,260.3Z" transform="translate(-67.9 -220)"/><path d="M352.4,257.2,350,261v12.4h-8.5V230.6H350V247l2.2-4.8,6-11.6h9.9l-10.9,18.7,12.7,24.1h-9.8Z" transform="translate(-67.9 -220)"/><path d="M371.6,269.5a4.6,4.6,0,1,1,9.1,0,4.6,4.6,0,1,1-9.1,0Z" transform="translate(-67.9 -220)" fill="#1c71c9"/><path d="M398,259h-3.1v14.4h-8.7V230.6h12.4c8.5,0,13.5,5.3,13.5,14.3,0,5.8-2.1,10-5.9,12.3l8,16.2h-9.4Zm-3.1-8.2h3.6c3.1,0,4.7-2.1,4.7-5.9s-1.6-6-4.7-6h-3.6Z" transform="translate(-67.9 -220)" fill="#1c71c9"/><path d="M417.6,259.6v-29h9v29c0,3.9,1.6,6.1,4.6,6.1s4.6-2.2,4.6-6.1v-29h9v29c0,9.1-5.1,14.5-13.6,14.5S417.6,268.7,417.6,259.6Z" transform="translate(-67.9 -220)" fill="#1c71c9"/><circle cx="406.9" cy="20" r="20" fill="#f1f2f5"/><path d="M467.1,231.6v16.8h-2.8v-13l-2.4,1.5v-3.1l3.3-2.2Z" transform="translate(-67.9 -220)" fill="#a7b1bb"/><path d="M478.9,243.1v.7c0,3-1.8,4.9-4.7,4.9s-4.7-1.8-4.7-4.9v-.7a4.3,4.3,0,0,1,1.7-3.5,4.7,4.7,0,0,1-1.4-3.3v-.4c0-2.8,1.7-4.6,4.4-4.6a4.2,4.2,0,0,1,4.4,4v1a4.7,4.7,0,0,1-1.4,3.3A4.3,4.3,0,0,1,478.9,243.1Zm-2.8,0q0-2.1-1.8-2.1t-1.8,2.1v.6q0,2.1,1.8,2.1t1.8-2.1Zm-3.4-6.8c0,1.3.6,2,1.6,2s1.6-.7,1.6-2V236c0-1.3-.6-1.9-1.6-1.9s-1.6.6-1.6,1.9Z" transform="translate(-67.9 -220)" fill="#a7b1bb"/><path d="M490.2,242.3h-3.4v3.5h-2.6v-3.5h-3.4v-2.6h3.4v-3.5h2.6v3.5h3.4Z" transform="translate(-67.9 -220)" fill="#a7b1bb"/></svg>