<svg xmlns="http://www.w3.org/2000/svg" viewBox="0 0 429 82.5"><title>logo-with-caption</title><path d="M94.2,223.9v42.7H85.4V249.2H76.6v17.4H67.9V223.9h8.7V241h8.8V223.9Z" transform="translate(-67.8 -213)"/><path d="M117.5,259.6h-9l-1.4,7h-9l10.3-42.7h9.2l10.3,42.7h-9Zm-1.7-8.3-1-4.9c-.5-3-1.2-8.2-1.7-11.7h-.2c-.4,3.5-1.1,8.7-1.7,11.7l-1,4.9Z" transform="translate(-67.8 -213)"/><path d="M131.9,223.9h8.5v34.5h8.4V223.9h8.6v34.5h8.4V223.9h8.5v42.7H131.9Z" transform="translate(-67.8 -213)"/><path d="M208,253.5c0,9-4.3,13.1-13.3,13.1H181.9V223.9h23.7V232h-15v8.2h4.1C203.7,240.2,208,245.8,208,253.5Zm-8.9,0c0-3.6-1.9-5.2-5.2-5.2h-3.3v10.1h3.3C197.2,258.4,199.1,256.9,199.1,253.5Z" transform="translate(-67.8 -213)"/><path d="M239.9,238.4c0,9.1-5.3,14.5-14.1,14.5H222v13.7h-8.6V223.9h12.4C234.6,223.9,239.9,229.3,239.9,238.4Zm-8.9,0c0-4.1-1.9-6.2-5.4-6.2H222v12.5h3.6C229.1,244.7,231,242.5,231,238.4Z" transform="translate(-67.8 -213)"/><path d="M249.4,250.9c-3.8-2.3-5.9-6.6-5.9-12.5,0-9.2,5-14.5,13.4-14.5h12.4v42.7h-8.6V252.8h-3.1l-6.8,13.8h-9.5Zm11.3-6.4V232.2h-3.6c-3.1,0-4.7,2.1-4.7,6.2s1.6,6.1,4.7,6.1Z" transform="translate(-67.8 -213)"/><path d="M303.1,223.9v42.7h-8.7V249.2h-8.8v17.4h-8.7V223.9h8.7V241h8.8V223.9Z" transform="translate(-67.8 -213)"/><path d="M309.5,253.6V237c0-9.1,4.9-13.9,13.2-13.9s13.3,4.8,13.6,13.9h-8.6c-.3-3.9-1.7-5.5-5-5.5s-4.2,1.7-4.2,5.5v16.6c0,3.6,1.5,5.3,4.2,5.3s4.8-1.5,5.1-5.3h8.7c-.2,8.9-5.2,13.8-13.8,13.8S309.5,262.5,309.5,253.6Z" transform="translate(-67.8 -213)"/><path d="M352.4,250.5l-2.4,3.8v12.3h-8.5V223.9H350v16.4l2.2-4.8,6-11.6h9.9l-10.9,18.7,12.7,24h-9.8Z" transform="translate(-67.8 -213)"/><path d="M371.6,262.8a4.6,4.6,0,1,1,4.6,4.6A4.4,4.4,0,0,1,371.6,262.8Z" transform="translate(-67.8 -213)" fill="#1c71c9"/><path d="M398,252.3h-3.1v14.3h-8.7V223.9h12.4c8.5,0,13.5,5.3,13.5,14.2,0,5.8-2.1,10.1-5.9,12.4l8,16.1h-9.4Zm-3.1-8.2h3.6c3.1,0,4.7-2.1,4.7-6s-1.6-5.9-4.7-5.9h-3.6Z" transform="translate(-67.8 -213)" fill="#1c71c9"/><path d="M417.6,252.9v-29h9v29c0,3.9,1.6,6,4.6,6s4.6-2.1,4.6-6v-29h9v29c0,9-5.1,14.5-13.6,14.5S417.6,261.9,417.6,252.9Z" transform="translate(-67.8 -213)" fill="#1c71c9"/><path d="M76.8,286.7a4.3,4.3,0,0,1-4.7,4.4c-2.6,0-4.3-1.7-4.3-4.8v-4.5c0-3,1.7-4.8,4.3-4.8s4.5,1.8,4.5,4.8v3H69.3v1.5c0,2.2,1.1,3.3,2.8,3.3a2.8,2.8,0,0,0,3.2-2.9Zm-7.5-4.9v1.6h5.8v-1.6c0-2.2-1.1-3.3-3-3.3S69.3,279.6,69.3,281.8Z" transform="translate(-67.8 -213)"/><path d="M87.2,284.4l-.9,1.2v5.2H84.8v-5.2l-.9-1.2-4.1,6.4H78l5-7.5-4.7-6h1.9l2.6,3.4,2,2.7v-6.1h1.5v6.1l2.1-2.7,2.5-3.4h1.9l-4.7,6,5.1,7.5H91.4Z" transform="translate(-67.8 -213)"/><path d="M103.1,286.7a4.3,4.3,0,0,1-4.7,4.4c-2.6,0-4.4-1.7-4.4-4.8v-4.5c0-3,1.8-4.8,4.4-4.8s4.5,1.8,4.5,4.8v3H95.6v1.5c0,2.2,1.1,3.3,2.8,3.3a2.8,2.8,0,0,0,3.2-2.9Zm-7.5-4.9v1.6h5.8v-1.6c0-2.2-1.1-3.3-3-3.3S95.6,279.6,95.6,281.8Z" transform="translate(-67.8 -213)"/><path d="M104.2,289.4h1a15.4,15.4,0,0,0,1.3-6.1q.3-3,.3-6h7v12.1h1.5v4.4h-1.5v-3h-8.1v3h-1.5Zm8,0V278.8h-4c0,1.6-.1,3.1-.2,4.7a21.3,21.3,0,0,1-1.1,5.9Z" transform="translate(-67.8 -213)"/><path d="M125.5,277.3v13.5H124v-6.2h-5.1v6.2h-1.5V277.3h1.5v5.8H124v-5.8Z" transform="translate(-67.8 -213)"/><path d="M137.6,286.7c-.2,2.8-1.8,4.4-4.7,4.4s-4.3-1.7-4.3-4.8v-4.5c0-3,1.7-4.8,4.4-4.8s4.5,1.8,4.5,4.8v3h-7.4v1.5c0,2.2,1.1,3.3,2.9,3.3s2.9-.9,3.1-2.9Zm-7.5-4.9v1.6h5.8v-1.6c0-2.2-1.1-3.3-2.9-3.3S130.1,279.6,130.1,281.8Z" transform="translate(-67.8 -213)"/><path d="M148.8,287c0,2.4-1.5,3.8-4.4,3.8h-3.9V277.4H144c2.6,0,4.1,1.4,4.1,3.6a3.4,3.4,0,0,1-1.5,2.7A3.5,3.5,0,0,1,148.8,287Zm-6.8-3.9h2c1.8,0,2.6-.8,2.6-2.1s-.8-2.2-2.6-2.2h-2Zm5.3,3.9c0-1.6-1-2.4-2.9-2.4H142v4.8h2.4C146.3,289.4,147.3,288.5,147.3,287Z" transform="translate(-67.8 -213)"/><path d="M159.5,277.3v13.5H158v-6.2h-5.1v6.2h-1.6V277.3h1.6v5.8H158v-5.8Z" transform="translate(-67.8 -213)"/><path d="M162.6,286.3v-4.4c0-3.1,1.8-4.9,4.5-4.9s4.5,1.8,4.5,4.9v4.4c0,3.1-1.8,4.8-4.5,4.8S162.6,289.4,162.6,286.3Zm7.4,0v-4.4c0-2.3-1.1-3.4-2.9-3.4s-3,1.1-3,3.4v4.4c0,2.3,1.1,3.4,3,3.4S170,288.6,170,286.3Z" transform="translate(-67.8 -213)"/><path d="M183.3,286.7c-.2,2.8-1.8,4.4-4.7,4.4s-4.3-1.7-4.3-4.8v-4.5c0-3,1.7-4.8,4.4-4.8s4.5,1.8,4.5,4.8v3h-7.4v1.5c0,2.2,1.1,3.3,2.9,3.3s2.9-.9,3.1-2.9Zm-7.5-4.9v1.6h5.8v-1.6c0-2.2-1.1-3.3-2.9-3.3S175.8,279.6,175.8,281.8Z" transform="translate(-67.8 -213)"/><path d="M192.1,277.3h1.5v7.8c0,1,0,2-.1,3h.1l.9-2,4.3-8.8h1.6v13.5h-1.5v-7.2c0-1.5,0-2.6.1-3.6h-.1a16,16,0,0,1-1.1,2.5l-4.2,8.4h-1.5Z" transform="translate(-67.8 -213)"/><path d="M211.9,277.3v13.5h-1.5v-6.2h-5.1v6.2h-1.5V277.3h1.5v5.8h5.1v-5.8Z" transform="translate(-67.8 -213)"/><path d="M228,282.5v3.3a4.9,4.9,0,0,1-5.1,5.2h-.6v4.5h-1.5V291h-.7a4.9,4.9,0,0,1-5.1-5.2v-3.3a5,5,0,0,1,5.1-5.4h.7v-4.8h1.5v4.8h.6C225.8,277.1,228,279.1,228,282.5Zm-7.2,7V278.6h-.7c-2,0-3.6,1.3-3.6,3.9v3.3a3.4,3.4,0,0,0,3.6,3.7Zm5.7-7c0-2.6-1.6-3.9-3.6-3.9h-.6v10.9h.6a3.4,3.4,0,0,0,3.6-3.7Z" transform="translate(-67.8 -213)"/><path d="M230.8,286.3v-4.4c0-3.1,1.8-4.9,4.5-4.9s4.5,1.8,4.5,4.9v4.4c0,3.1-1.8,4.8-4.5,4.8S230.8,289.4,230.8,286.3Zm7.4,0v-4.4c0-2.3-1.1-3.4-2.9-3.4s-3,1.1-3,3.4v4.4c0,2.3,1.1,3.4,3,3.4S238.2,288.6,238.2,286.3Z" transform="translate(-67.8 -213)"/><path d="M251.6,282.2v3.9c0,3.3-1.6,5-4.2,5a3.5,3.5,0,0,1-3.1-1.5v5.9h-1.5V277.3H244l.2,1.3a4,4,0,0,1,3.2-1.6C249.9,277,251.6,278.8,251.6,282.2Zm-1.5,0c0-2.6-1.1-3.8-3-3.8s-2.8,1.2-2.8,3.7v4c0,2.1,1.1,3.6,2.8,3.6s3-1,3-3.6Z" transform="translate(-67.8 -213)"/><path d="M265.1,277.3v13.5h-1.5v-7.4a30.8,30.8,0,0,1,.2-3.3h-.1c-.4,1-.7,2.1-1.2,3.1l-1.8,4.1h-1.6l-1.8-4.1c-.5-1-.8-2.1-1.2-3.1H256c0,1,.1,2,.1,3.3v7.4h-1.4V277.3h1.5l2.8,6.2.9,2.1h0l.9-2.1,2.7-6.2Z" transform="translate(-67.8 -213)"/><path d="M276.6,281.5v9.3h-1.3v-1.2a3.8,3.8,0,0,1-3.2,1.5,3.9,3.9,0,0,1-4.2-4.1c0-2.6,1.6-4,4.6-4h2.7v-1.5c0-1.9-.9-3-2.7-3a2.5,2.5,0,0,0-2.7,2.4h-1.5a4,4,0,0,1,4.3-3.9C275,277,276.6,278.8,276.6,281.5Zm-1.5,5.5v-2.6h-2.7c-2,0-3.1.9-3.1,2.6s1.2,2.7,3,2.7A2.6,2.6,0,0,0,275.1,287Z" transform="translate(-67.8 -213)"/><path d="M288.1,290.8H280V277.3h1.5v12.1h5V277.3h1.6v12.1h1.4v4.4h-1.4Z" transform="translate(-67.8 -213)"/><path d="M291.8,277.3h1.5v7.8c0,1,.1,2,0,3h0a12.1,12.1,0,0,0,.9-2l4.4-8.8h1.5v13.5h-1.5v-7.2c0-1.5.1-2.6.1-3.6h0c-.2.6-.7,1.6-1.1,2.5l-4.2,8.4h-1.6Z" transform="translate(-67.8 -213)"/><path d="M303.2,286.3v-4.4c0-3.1,1.8-4.9,4.5-4.9s4.5,1.8,4.5,4.9v4.4c0,3.1-1.8,4.8-4.5,4.8S303.2,289.4,303.2,286.3Zm7.4,0v-4.4c0-2.3-1.1-3.4-2.9-3.4s-3,1.1-3,3.4v4.4c0,2.3,1.2,3.4,3,3.4S310.6,288.6,310.6,286.3Z" transform="translate(-67.8 -213)"/><path d="M323.4,277.3v13.5h-1.5v-6.2h-5.2v6.2h-1.5V277.3h1.5v5.8h5.2v-5.8Z" transform="translate(-67.8 -213)"/><path d="M335,277.3v13.5h-1.6v-6.2h-5.1v6.2h-1.5V277.3h1.5v5.8h5.1v-5.8Z" transform="translate(-67.8 -213)"/><path d="M338,286.3v-4.4c0-3.1,1.8-4.9,4.5-4.9s4.5,1.8,4.5,4.9v4.4c0,3.1-1.8,4.8-4.5,4.8S338,289.4,338,286.3Zm7.5,0v-4.4c0-2.3-1.2-3.4-3-3.4s-2.9,1.1-2.9,3.4v4.4c0,2.3,1.1,3.4,2.9,3.4S345.5,288.6,345.5,286.3Z" transform="translate(-67.8 -213)"/><path d="M358.8,286.7a4.3,4.3,0,0,1-4.7,4.4c-2.6,0-4.4-1.7-4.4-4.8v-4.5c0-3,1.8-4.8,4.4-4.8s4.5,1.8,4.5,4.8v3h-7.3v1.5c0,2.2,1.1,3.3,2.8,3.3a2.8,2.8,0,0,0,3.2-2.9Zm-7.5-4.9v1.6h5.8v-1.6c0-2.2-1.1-3.3-3-3.3S351.3,279.6,351.3,281.8Z" transform="translate(-67.8 -213)"/><path d="M367.5,277.3H369v7.8c0,1,.1,2,0,3h0a12.1,12.1,0,0,0,.9-2l4.3-8.8h1.6v13.5h-1.5v-7.2c0-1.5,0-2.6.1-3.6h-.1a14.3,14.3,0,0,1-1,2.5l-4.2,8.4h-1.6Z" transform="translate(-67.8 -213)"/><path d="M387.1,287a4.1,4.1,0,0,1-4.4,4.1c-2.8,0-4.5-1.7-4.6-4h1.5c.1,1.4,1.1,2.5,3.1,2.5a2.6,2.6,0,0,0,2.9-2.7c0-1.4-1.1-2.3-3-2.3h-2v-1.4h1.9c1.6,0,2.7-.8,2.7-2.3a2.3,2.3,0,0,0-2.6-2.3c-1.7,0-2.6.8-2.7,2.7h-1.5c.1-2.7,1.6-4.1,4.2-4.1s4.1,1.6,4.1,3.6a3.2,3.2,0,0,1-1.9,3A3.3,3.3,0,0,1,387.1,287Z" transform="translate(-67.8 -213)"/><path d="M387.9,289.4h1a17.4,17.4,0,0,0,1.3-6.1c.1-2,.2-4,.2-6h7v12.1h1.5v4.4h-1.5v-3h-8v3h-1.5Zm8,0V278.8h-4c-.1,1.6-.1,3.1-.2,4.7a17.7,17.7,0,0,1-1.2,5.9Z" transform="translate(-67.8 -213)"/><path d="M409.1,281.5v9.3h-1.3v-1.2a3.7,3.7,0,0,1-3.1,1.5c-2.5,0-4.3-1.5-4.3-4.1s1.7-4,4.6-4h2.7v-1.5c0-1.9-.9-3-2.7-3a2.5,2.5,0,0,0-2.7,2.4h-1.5A4,4,0,0,1,405,277C407.5,277,409.1,278.8,409.1,281.5Zm-1.5,5.5v-2.6h-2.7c-2,0-3.1.9-3.1,2.6s1.2,2.7,3,2.7A2.6,2.6,0,0,0,407.6,287Z" transform="translate(-67.8 -213)"/><path d="M420.7,277.3v13.5h-1.5v-6.2H414v6.2h-1.5V277.3H414v5.8h5.2v-5.8Z" transform="translate(-67.8 -213)"/><path d="M424.1,277.3h1.5v7.8c0,1,0,2-.1,3h.1l.9-2,4.3-8.8h1.6v13.5h-1.6v-7.2c0-1.5.1-2.6.1-3.6h0c-.2.6-.7,1.6-1.1,2.5l-4.2,8.4h-1.5Z" transform="translate(-67.8 -213)"/><path d="M444.5,286.7a4.3,4.3,0,0,1-4.7,4.4c-2.7,0-4.4-1.7-4.4-4.8v-4.5c0-3,1.8-4.8,4.4-4.8s4.5,1.8,4.5,4.8v3H437v1.5c0,2.2,1,3.3,2.8,3.3s2.9-.9,3.1-2.9Zm-7.5-4.9v1.6h5.8v-1.6c0-2.2-1.1-3.3-3-3.3S437,279.6,437,281.8Z" transform="translate(-67.8 -213)"/><circle cx="409" cy="20" r="20" fill="#f1f2f5"/><path d="M469.1,224.6v16.8h-2.8v-13l-2.4,1.5v-3.1l3.3-2.2Z" transform="translate(-67.8 -213)" fill="#a7b1bb"/><path d="M480.9,236.1v.7c0,3-1.8,4.9-4.7,4.9s-4.7-1.8-4.7-4.9v-.7a4.3,4.3,0,0,1,1.7-3.5,4.7,4.7,0,0,1-1.4-3.3v-.4c0-2.8,1.7-4.6,4.4-4.6a4.2,4.2,0,0,1,4.4,4v1a4.7,4.7,0,0,1-1.4,3.3A4.3,4.3,0,0,1,480.9,236.1Zm-2.8,0q0-2.1-1.8-2.1t-1.8,2.1v.6q0,2.1,1.8,2.1t1.8-2.1Zm-3.4-6.8c0,1.3.6,2,1.6,2s1.6-.7,1.6-2V229c0-1.3-.6-1.9-1.6-1.9s-1.6.6-1.6,1.9Z" transform="translate(-67.8 -213)" fill="#a7b1bb"/><path d="M492.2,235.3h-3.4v3.5h-2.6v-3.5h-3.4v-2.6h3.4v-3.5h2.6v3.5h3.4Z" transform="translate(-67.8 -213)" fill="#a7b1bb"/></svg>