<svg xmlns="http://www.w3.org/2000/svg" viewBox="0 0 460 460"><g fill="#ffffff">
  <path d="M229.6 80.8c-82.4 0-148.8 67.2-148.8 148.8s66.4 148.8 148.8 148.8S378.4 312 378.4 229.6 312 80.8 229.6 80.8zm0 284c-74.4 0-135.2-60.8-135.2-135.2S155.2 94.4 229.6 94.4s135.2 60.8 135.2 135.2S304 364.8 229.6 364.8z"/><path d="M452.8 223.2h-36A188.4 188.4 0 0 0 236 41.6V6.4c0-4-3.2-6.4-6.4-6.4a6.9 6.9 0 0 0-6.4 6.4v36A188.4 188.4 0 0 0 41.6 223.2H6.4c-4 0-6.4 3.2-6.4 6.4s3.2 6.4 6.4 6.4h36a188.4 188.4 0 0 0 180.8 181.6v36c0 4 3.2 6.4 6.4 6.4s6.4-3.2 6.4-6.4v-36c98.4-4 177.6-83.2 181.6-181.6h36c4 0 6.4-3.2 6.4-6.4s-3.2-6.4-7.2-6.4zM229.6 404c-96 0-174.4-78.4-174.4-174.4S133.6 55.2 229.6 55.2 404 133.6 404 229.6 325.6 404 229.6 404z"/>
</g></svg>
