<svg xmlns="http://www.w3.org/2000/svg" viewBox="0 0 512 512"><g fill="#ffffff">
  <path d="M429.7 343.3c4.8-72.7-16.1-145-34.6-193.1a603.5 603.5 0 0 0-41.6-87.7c-1.2-5.3-6.3-21-23.6-28.5-4-2.5-23.6-15-47.3-24-36.8-14.2-64.1-13.2-81.2 3-22.8 21.6-33.4 40.9-31.3 57.3 1 7.8 4.6 13.2 7.8 16.5-.2 1.7-.2 3.6.2 5.7 1.8 9.3 10.2 18.3 24.8 26.7 30 17.3 52.8 6.4 68-.9l4.1-2c2.3-1 3.3-.5 3.7-.3 2.5 1.1 4.9 5.4 6.1 8.7-2.5 14.5-16.3 97.8-6.9 153.4a117.5 117.5 0 0 0-66.8-1.8 144 144 0 0 0-42.8 19.1 89.7 89.7 0 0 0-50.4-3.5v-.1a8 8 0 0 0-8-7.3H82.6a8 8 0 0 0-8 8v182a8 8 0 1 0 16 0v-174h12c1.7 13 6.1 41.4 16 74.8 15.1 51.4 36.2 91.8 62.8 120.6H82.6a8 8 0 1 0 0 16.1h118.7a8 8 0 0 0 5.3-14.2l-.2-.2a137.3 137.3 0 0 0 42.2-26.4 142 142 0 0 0 35.7-2.2c4-.5 8.3-1.2 12.7-2.1 34.7-7.2 60.4-23.6 74.9-47.7 19.9 3 51.9-.1 62.3-29.6a53.4 53.4 0 0 0-4.5-46.3zm-10.7 41c-9.6 27.2-47.8 18.5-49.4 18a8 8 0 0 0-9.1 4.3c-27.9 54.8-112.9 48-113.7 47.8a8 8 0 0 0-2.7.2 77.2 77.2 0 0 1-38-13.7 8 8 0 1 0-9.6 12.9 85.2 85.2 0 0 0 30.7 14.1 131 131 0 0 1-33.6 17.4c-49.7-53.7-68-141.4-73.5-177.4 13.3-2.6 30.7-3.5 45.5 4a8 8 0 0 0 8.5-.9c.2-.1 17-13 41.6-19.2a98.8 98.8 0 0 1 70.4 7c6.6 3.3 13 7.4 19.4 12.2a8 8 0 0 0 11.3-1.4 8 8 0 0 0-1.5-11.3c-6.5-5-13-9-19.3-12.5-14-55 4.8-159.2 5-160.3a8 8 0 0 0-.1-3.5c-.5-1.6-4.6-15.6-15.4-20.6a19.9 19.9 0 0 0-17.2.3l-4.4 2.1c-14.2 6.8-30.4 14.5-52.9 1.5-15.7-9-17.5-15.4-17.1-16.8A8 8 0 0 0 191 77s-4.3-2.8-5-8.8c-.8-6.2 1.6-20.1 26.4-43.7 25-23.7 87.2 8.8 109.1 23.3l1.4.7a25.2 25.2 0 0 1 15 18 8 8 0 0 0 1 3.1c.8 1.3 77 127 75.3 256.3a43 43 0 0 0-1.1-.8 8 8 0 0 0-9 13.3c.2.2 24.8 17.3 14.8 45.7z"/><path d="M294.5 349.8c-44 43.3-119.9 26.9-120.6 26.7a8 8 0 0 0-3.6 15.7c1.5.3 17.2 3.8 38.6 3.8 28.8 0 68-6.3 96.9-34.7a8 8 0 0 0-11.3-11.5zM333.3 145.4a8 8 0 0 0-4.5 10.5c.3.6 24 61.3 11.1 132a8 8 0 0 0 15.9 2.8 278.6 278.6 0 0 0-12-140.8 8 8 0 0 0-10.5-4.5z"/>
</g></svg>
